<svg version="1.1" id="Layer_1" xmlns="http://www.w3.org/2000/svg" xmlns:xlink="http://www.w3.org/1999/xlink" x="0px" y="0px"
	 width="70" viewBox="0 0 120 90" enable-background="new 0 0 120 90" xml:space="preserve">
<path fill="#FBFBFB" opacity="1.000000" stroke="none" 
	d="
M1.000000,39.000000 
	C1.000000,26.000004 1.000000,13.500008 1.000000,1.000008 
	C40.999985,1.000006 80.999969,1.000006 120.999969,1.000003 
	C120.999977,30.999975 120.999977,60.999950 120.999985,90.999939 
	C81.000038,90.999962 41.000072,90.999962 1.000055,90.999985 
	C1.000000,73.833336 1.000000,56.666668 1.000000,39.000000 
M89.733421,36.107105 
	C89.821037,36.070457 89.908661,36.033810 90.265266,35.890610 
	C90.177803,35.928314 90.090347,35.966022 89.733421,36.107105 
M51.573750,42.974773 
	C51.746128,42.670876 51.918503,42.366978 52.540913,41.383831 
	C52.396088,40.600616 52.251263,39.817406 52.734097,38.895218 
	C54.177071,37.971260 55.620049,37.047302 57.310322,36.576675 
	C57.609035,36.739651 57.907753,36.902622 58.054073,37.704716 
	C58.019695,38.140480 57.985321,38.576248 57.443340,39.451389 
	C57.689194,40.229290 57.935047,41.007195 58.180901,41.785095 
	C58.805496,40.876278 59.430092,39.967461 60.492756,39.029133 
	C60.492756,39.029133 60.931816,39.027187 61.708969,39.101013 
	C64.216110,40.100521 66.723259,41.100033 69.767975,42.313854 
	C68.803635,40.465672 67.889618,38.713932 67.803841,36.963341 
	C71.650955,37.165737 75.497009,37.425404 79.346550,37.496590 
	C79.817009,37.505291 80.306160,36.502914 80.942093,35.174057 
	C81.154060,32.731503 80.051079,29.626564 84.042725,29.626080 
	C85.026993,29.423187 86.011269,29.220293 87.473320,29.085457 
	C87.473320,29.085457 87.950317,29.158743 88.225998,29.693653 
	C89.437569,29.764765 90.649139,29.835878 92.583420,29.918089 
	C94.046623,29.354988 95.629112,28.978720 96.923988,28.151974 
	C97.597115,27.722202 97.762260,26.496819 98.127785,25.165442 
	C98.423225,24.632788 98.718674,24.100132 99.842697,23.479445 
	C99.829788,22.461285 99.816879,21.443127 100.553604,20.211576 
	C99.378082,20.139256 98.202560,20.066936 96.296532,19.955212 
	C94.848763,20.922995 93.400993,21.890778 91.353889,22.977743 
	C90.950447,23.029356 90.547005,23.080971 89.636307,22.835979 
	C89.121994,22.275164 88.607689,21.714348 87.938377,20.984524 
	C87.567947,22.163189 87.287804,23.054575 86.093391,23.928490 
	C82.753868,23.968111 79.414352,24.007732 75.337273,23.864904 
	C73.163399,23.278494 70.989525,22.692083 68.099037,22.086773 
	C67.010468,21.840183 65.921906,21.593592 64.288765,21.391846 
	C63.925476,21.418602 63.562183,21.445358 62.476662,21.085146 
	C61.942085,21.164291 61.407513,21.243437 60.170212,21.185617 
	C59.455166,21.194637 58.740116,21.203657 57.582474,20.594723 
	C55.343178,21.056305 53.103886,21.517885 50.479023,21.711456 
	C50.046665,21.258795 49.614304,20.806133 49.749855,19.878841 
	C53.002064,16.913879 56.254272,13.948918 59.506481,10.983956 
	C59.455353,10.484400 59.404224,9.984843 59.353096,9.485287 
	C55.215267,8.976577 51.077438,8.467867 46.338345,7.552451 
	C44.306637,7.292037 42.280952,6.917110 40.241192,6.809914 
	C38.787891,6.733537 37.315670,7.017312 35.295326,7.499617 
	C34.681705,8.003866 34.068081,8.508115 32.962948,8.860290 
	C32.451107,8.878329 31.939268,8.896369 30.591698,9.016705 
	C29.064741,8.653498 27.537783,8.290290 25.795034,7.412049 
	C25.343575,7.100393 24.892117,6.788737 24.440657,6.477081 
	C23.721729,9.646873 20.729324,12.680692 23.864109,16.840405 
	C23.658278,18.588766 23.452446,20.337130 23.376295,22.655788 
	C23.874668,22.837236 24.373039,23.018686 24.816042,24.009583 
	C25.070192,25.330824 25.324345,26.652067 25.148252,28.485703 
	C24.522680,29.864786 23.897108,31.243870 22.966026,33.185421 
	C22.350403,33.743023 21.734781,34.300629 20.907274,34.596886 
	C20.786116,34.566391 20.664957,34.535896 20.543798,34.505402 
	C20.633961,34.724003 20.724121,34.942604 20.876303,35.787930 
	C22.073347,37.866764 23.270390,39.945599 24.623817,42.657227 
	C24.600897,43.091049 24.577976,43.524872 23.906908,43.982285 
	C23.051374,44.670429 22.195843,45.358570 21.340309,46.046715 
	C21.653526,46.451813 21.966743,46.856911 22.279961,47.262012 
	C23.179541,46.565155 24.079123,45.868298 25.723471,45.237133 
	C26.430338,45.017284 27.137207,44.797440 27.974611,44.913433 
	C28.050018,45.148178 28.161896,45.364037 28.195845,46.171158 
	C29.134380,46.761929 30.072916,47.352695 31.485067,48.493267 
	C33.934959,48.189388 36.384853,47.885513 39.644878,47.895470 
	C41.358150,47.886215 43.071426,47.876965 45.519306,47.923161 
	C48.407703,48.098602 51.296104,48.274044 53.921326,48.433498 
	C52.732018,46.609020 51.834686,45.232452 51.030277,43.512577 
	C51.030277,43.512577 51.079082,43.160278 51.573750,42.974773 
M41.717808,62.477516 
	C40.940746,62.690807 40.163689,62.904095 38.885788,63.254852 
	C42.150326,65.852036 41.973991,71.392769 47.392826,72.121758 
	C45.817638,68.794746 44.483891,65.977684 43.836826,63.025051 
	C44.682068,61.132984 46.116379,59.240826 46.116081,57.348892 
	C46.115940,56.446239 43.389965,55.544014 41.898674,54.641594 
	C44.454445,57.425228 44.186710,59.703278 41.717808,62.477516 
M36.146107,55.001656 
	C35.568600,55.149548 34.488834,55.289272 34.486279,55.446514 
	C34.398891,60.821602 34.413582,66.198349 34.413582,72.391052 
	C35.724915,71.572281 36.624020,71.288834 36.641743,70.958145 
	C36.908497,65.980652 37.059303,60.996952 37.836403,56.029224 
	C38.307583,55.884216 38.778767,55.739204 39.249947,55.594196 
	C39.218269,55.404186 39.186592,55.214180 39.154911,55.024170 
	C38.416561,55.024170 37.678211,55.024170 36.146107,55.001656 
M94.289040,62.165577 
	C92.881393,62.394653 91.473747,62.623734 89.974709,61.982094 
	C89.974709,59.689625 89.974709,57.397156 89.974709,54.895302 
	C88.347023,55.047024 87.244148,55.149826 86.570572,55.212612 
	C86.570572,60.607670 86.570572,65.708588 86.570572,71.026268 
	C87.647194,70.974037 88.704170,70.922752 90.000359,70.859856 
	C90.000359,68.294052 90.000359,66.147484 90.743004,63.886581 
	C92.173759,65.548691 93.496193,67.323204 95.068451,68.838486 
	C96.401985,70.123680 98.024124,71.109428 100.506386,72.966866 
	C98.305733,68.360771 96.836418,65.285408 96.053574,62.248024 
	C100.341225,61.253365 100.667595,60.081451 96.472176,55.349720 
	C95.981956,57.574436 95.491745,59.799156 94.289040,62.165577 
M59.232777,62.248184 
	C57.914330,62.497036 56.595882,62.745888 55.230656,63.003567 
	C54.532139,55.013149 54.532139,55.013149 51.598221,55.520332 
	C51.598221,60.665989 51.598221,65.759789 51.598221,71.046829 
	C52.700539,70.965355 53.750324,70.887764 54.751045,70.813805 
	C54.891773,68.211952 55.009373,66.037727 55.208897,62.348885 
	C58.416607,66.260765 60.604237,68.928635 62.791870,71.596504 
	C63.169498,71.272438 63.547131,70.948364 63.924763,70.624298 
	C62.713070,67.821587 61.501373,65.018883 60.985851,62.247368 
	C65.316628,61.310772 65.666367,60.102146 61.465729,55.352478 
	C60.978790,57.591507 60.491856,59.830536 59.232777,62.248184 
M81.722839,69.534424 
	C79.607544,64.437607 77.492241,59.340790 75.376945,54.243973 
	C74.916824,54.320446 74.456696,54.396919 73.996574,54.473392 
	C73.405197,57.968296 72.813828,61.463200 72.200340,65.088783 
	C76.592003,64.356255 79.044006,66.455429 78.142181,72.973434 
	C80.109947,71.576241 81.131271,70.851059 81.722839,69.534424 
M18.543737,69.851723 
	C19.294359,70.706551 20.044979,71.561371 20.795601,72.416199 
	C21.128559,72.085289 21.461517,71.754379 21.794476,71.423477 
	C21.794476,66.032288 21.794476,60.641106 21.794476,55.182518 
	C20.432983,55.182518 19.344709,55.182518 18.877892,55.182518 
	C18.877892,59.927921 18.877892,64.462494 18.543737,69.851723 
M3.778357,69.771584 
	C3.607735,70.016586 3.428673,70.256927 3.285191,70.516914 
	C3.275461,70.534531 3.531636,70.780670 3.667210,70.783707 
	C4.709555,70.807053 5.752657,70.796555 6.888729,70.796555 
	C6.888729,65.392540 6.888729,60.320522 6.888729,55.186619 
	C5.582201,55.186619 4.496587,55.186619 4.044350,55.186619 
	C4.044350,59.902298 4.044350,64.412582 3.778357,69.771584 
M115.973305,59.293751 
	C115.973305,62.796509 115.973305,66.299263 115.973305,69.885117 
	C119.219406,68.698891 119.852760,65.574226 119.766808,62.248119 
	C119.670746,58.530895 118.100616,56.723408 114.151131,55.357117 
	C114.772949,56.546371 115.284729,57.525169 115.973305,59.293751 
M104.669296,68.927650 
	C105.288872,69.270432 105.908440,69.613213 106.365120,69.865868 
	C106.365120,65.135071 106.365120,60.616310 106.365120,56.253483 
	C102.009842,59.082806 101.371185,62.286430 104.669296,68.927650 
M96.136200,40.689407 
	C95.616104,39.466419 95.096016,38.243431 94.575920,37.020443 
	C94.010956,37.398232 93.445992,37.776020 92.881020,38.153809 
	C93.743561,39.004543 94.606094,39.855278 96.136200,40.689407 
M85.305984,35.195309 
	C84.705544,35.486309 84.105110,35.777309 83.504669,36.068314 
	C84.721802,36.691498 85.938942,37.314682 87.156082,37.937870 
	C87.342461,37.541992 87.528839,37.146118 87.715210,36.750240 
	C87.123360,36.323406 86.531509,35.896572 85.305984,35.195309 
M94.450783,18.293633 
	C95.115768,17.726955 95.780754,17.160280 96.445747,16.593603 
	C96.139473,16.355238 95.833206,16.116871 95.526932,15.878504 
	C95.060753,16.524799 94.594566,17.171095 94.450783,18.293633 
M112.525673,71.358162 
	C112.091225,70.945877 111.679955,70.499504 111.191185,70.167091 
	C111.134010,70.128204 110.649292,70.717957 110.362785,71.016289 
	C110.916252,71.159767 111.469711,71.303238 112.525673,71.358162 
M91.397644,38.627953 
	C90.823143,38.845898 90.248642,39.063847 89.674141,39.281792 
	C89.755859,39.522564 89.837578,39.763336 89.919296,40.004112 
	C90.509010,39.679020 91.098717,39.353928 91.397644,38.627953 
M91.328423,17.621162 
	C91.405685,17.882639 91.482948,18.144115 91.560211,18.405594 
	C91.850449,18.122133 92.140686,17.838673 92.430916,17.555206 
	C92.170906,17.472069 91.910889,17.388931 91.328423,17.621162 
M17.637403,29.310347 
	C17.515554,29.567715 17.393707,29.825081 17.271860,30.082449 
	C17.517513,30.157101 17.763168,30.231752 18.008821,30.306402 
	C18.035158,29.953875 18.061493,29.601345 17.637403,29.310347 
M114.409401,71.480103 
	C114.409401,71.480103 114.523300,71.410416 114.409401,71.480103 
M112.516129,55.403919 
	C112.516129,55.403919 112.590096,55.523914 112.516129,55.403919 
M109.520111,55.401154 
	C109.520111,55.401154 109.596985,55.523972 109.520111,55.401154 
M55.581718,43.513100 
	C55.581718,43.513100 55.478386,43.573498 55.581718,43.513100 
z"/>
<path fill="#121212" opacity="1.000000" stroke="none" 
	d="
M57.063026,36.123344 
	C55.620049,37.047302 54.177071,37.971260 52.385040,38.661118 
	C50.665802,38.392838 49.295616,38.358654 47.554138,38.124874 
	C45.796021,37.998936 44.409195,38.072594 42.857025,37.863647 
	C42.068523,37.449226 41.445366,37.317413 40.507225,37.130161 
	C39.161324,37.196381 38.130402,37.318043 37.076019,37.204506 
	C36.737347,36.645096 36.422131,36.320885 35.991890,35.707787 
	C35.570847,35.148525 35.264828,34.878147 34.694534,34.451466 
	C33.616837,34.195404 32.803410,34.095642 32.022701,33.791901 
	C32.055420,33.587914 32.018265,33.176407 32.398689,33.221825 
	C37.252823,33.636589 32.536823,30.740255 34.328182,30.016273 
	C41.876740,30.072102 37.284100,26.022223 37.393517,23.387833 
	C39.539207,22.844404 41.297718,22.393606 43.370003,22.202206 
	C41.198372,27.141626 43.989799,29.408144 47.744129,31.234791 
	C47.783779,31.217190 47.808884,31.132589 47.811180,31.442902 
	C48.187771,31.918242 48.562065,32.083271 49.123238,32.487446 
	C49.895405,32.772057 50.480686,32.817516 51.409222,32.820179 
	C51.924301,32.235085 52.096134,31.692785 52.321182,31.184925 
	C52.374397,31.219366 52.492435,31.173122 52.781590,31.158878 
	C53.420654,30.463541 53.770561,29.782448 54.505005,29.063581 
	C55.320869,28.774158 55.752193,28.522505 56.483982,28.420105 
	C57.213470,29.056650 57.642490,29.543943 58.026115,30.422440 
	C57.893665,31.857536 57.806610,32.901428 57.470924,34.102131 
	C57.154259,34.843010 57.086224,35.427074 57.005089,36.048904 
	C56.991989,36.086670 57.063026,36.123344 57.063026,36.123344 
z"/>
<path fill="#292929" opacity="1.000000" stroke="none" 
	d="
M81.937714,69.830154 
	C81.131271,70.851059 80.109947,71.576241 78.142181,72.973434 
	C79.044006,66.455429 76.592003,64.356255 72.200340,65.088783 
	C72.813828,61.463200 73.405197,57.968296 73.996574,54.473392 
	C74.456696,54.396919 74.916824,54.320446 75.376945,54.243973 
	C77.492241,59.340790 79.607544,64.437607 81.937714,69.830154 
z"/>
<path fill="#171717" opacity="1.000000" stroke="none" 
	d="
M46.939610,7.959157 
	C51.077438,8.467867 55.215267,8.976577 59.353096,9.485287 
	C59.404224,9.984843 59.455353,10.484400 59.506481,10.983956 
	C56.254272,13.948918 53.002064,16.913879 49.037994,20.383415 
	C47.710377,21.072353 47.094620,21.256720 46.712749,21.025534 
	C46.339233,20.074711 45.731838,19.539436 45.218384,18.697132 
	C46.071068,17.352627 46.829811,16.315151 47.796371,15.097360 
	C48.376808,14.300804 48.749428,13.684566 49.336365,12.958872 
	C49.804314,12.629956 49.959789,12.354995 50.320549,11.833750 
	C49.395992,10.823552 48.167995,10.004139 46.744438,8.878395 
	C46.679115,8.367762 46.809364,8.163459 46.939610,7.959157 
z"/>
<path fill="#636363" opacity="1.000000" stroke="none" 
	d="
M32.018265,33.176407 
	C32.018265,33.176407 32.055420,33.587914 31.738831,33.898521 
	C31.405138,34.772415 31.388031,35.335701 31.236713,36.273407 
	C31.065390,37.434505 31.028278,38.221188 30.716478,38.949493 
	C29.626810,38.740433 28.811831,38.589741 27.622284,38.534248 
	C26.816835,39.070656 26.385954,39.511875 25.929871,39.947960 
	C25.904669,39.942822 25.859806,39.917652 25.524099,39.739571 
	C24.868368,38.136845 24.588785,36.701443 24.213808,35.291412 
	C23.972143,34.382664 23.590464,33.511150 23.271534,32.622952 
	C23.897108,31.243870 24.522680,29.864786 25.584290,28.066139 
	C26.692955,27.428982 27.365582,27.211390 28.268679,26.987942 
	C28.499151,26.982084 28.960066,26.994993 29.173973,26.971624 
	C29.387880,26.948256 29.817764,26.928104 30.016909,27.184204 
	C30.794748,28.274693 31.373446,29.109079 31.876591,30.345428 
	C31.873447,31.557062 31.945856,32.366734 32.018265,33.176407 
z"/>
<path fill="#1D1D1D" opacity="1.000000" stroke="none" 
	d="
M60.289680,62.216171 
	C61.501373,65.018883 62.713070,67.821587 63.924763,70.624298 
	C63.547131,70.948364 63.169498,71.272438 62.791870,71.596504 
	C60.604237,68.928635 58.416607,66.260765 55.208897,62.348885 
	C55.009373,66.037727 54.891773,68.211952 54.751045,70.813805 
	C53.750324,70.887764 52.700539,70.965355 51.598221,71.046829 
	C51.598221,65.759789 51.598221,60.665989 51.598221,55.520332 
	C54.532139,55.013149 54.532139,55.013149 55.230656,63.003567 
	C56.595882,62.745888 57.914330,62.497036 59.666489,62.241272 
	C60.100197,62.234356 60.289680,62.216171 60.289680,62.216171 
z"/>
<path fill="#C9C9C9" opacity="1.000000" stroke="none" 
	d="
M49.122047,13.068327 
	C48.749428,13.684566 48.376808,14.300804 47.373482,15.034266 
	C45.607388,15.112833 44.471996,15.074175 43.209427,14.725178 
	C42.902790,14.005375 42.723328,13.595911 42.836388,13.080601 
	C43.433792,12.476671 43.738674,11.978588 44.343826,11.367674 
	C44.662548,11.041796 44.680996,10.828747 44.652565,10.471858 
	C44.339344,10.131192 44.044006,10.088176 43.448334,10.210758 
	C42.774170,10.480156 42.371346,10.737765 41.987083,11.000380 
	C42.005653,11.005385 42.003098,10.967010 41.821865,10.858850 
	C41.640633,10.750691 41.220684,10.793354 40.866005,10.786410 
	C39.335812,11.516240 38.160290,12.253015 36.760918,12.820599 
	C36.036560,12.113974 35.536053,11.576539 34.996456,10.789022 
	C34.961826,10.203470 34.966286,9.868001 35.224983,9.286318 
	C35.603443,8.406857 35.727669,7.773611 35.851891,7.140364 
	C37.315670,7.017312 38.787891,6.733537 40.241192,6.809914 
	C42.280952,6.917110 44.306637,7.292037 46.638977,7.755804 
	C46.809364,8.163459 46.679115,8.367762 46.758213,9.145521 
	C46.995453,10.074522 47.023350,10.430067 46.857910,10.982395 
	C47.483734,11.808894 48.302891,12.438610 49.122047,13.068327 
z"/>
<path fill="#B9B9B9" opacity="1.000000" stroke="none" 
	d="
M46.478867,21.441084 
	C47.094620,21.256720 47.710377,21.072353 48.754036,20.620731 
	C49.614304,20.806133 50.046665,21.258795 50.950897,21.835321 
	C51.607853,21.968517 51.792927,21.977850 51.943985,22.253998 
	C51.922832,22.699602 51.935707,22.878393 51.570641,23.014338 
	C50.779198,23.679098 50.365692,24.386705 49.794495,25.314587 
	C49.359886,25.886980 49.082966,26.239103 48.806042,26.591225 
	C49.528725,26.723011 50.251404,26.854797 50.957916,27.409954 
	C50.870766,28.393785 50.799786,28.954248 50.500305,29.584629 
	C49.416027,30.187162 48.560253,30.719774 47.704479,31.252388 
	C43.989799,29.408144 41.198372,27.141626 43.349998,22.238712 
	C43.016224,22.015818 42.937153,21.987894 43.262405,22.363445 
	C44.250111,22.163111 44.912560,21.587223 45.643539,21.172222 
	C45.712074,21.333111 46.081036,21.467157 46.081036,21.467157 
	C46.081036,21.467157 46.478867,21.441084 46.478867,21.441084 
z"/>
<path fill="#636363" opacity="1.000000" stroke="none" 
	d="
M76.074829,24.047352 
	C79.414352,24.007732 82.753868,23.968111 86.609604,24.228825 
	C87.190170,24.716772 87.254517,24.904387 87.311539,25.311302 
	C87.443802,25.787844 87.585228,26.044075 87.506393,26.512350 
	C87.135811,26.866999 86.987312,27.008593 86.518768,27.131649 
	C85.470779,27.766727 84.742851,28.420343 84.014923,29.073959 
	C80.051079,29.626564 81.154060,32.731503 80.542664,35.547028 
	C79.713943,35.948410 79.284645,35.976822 78.901222,35.629761 
	C78.933670,34.501495 78.920242,33.748707 78.976891,32.799454 
	C79.046974,32.602989 79.105080,32.189877 79.372391,32.082199 
	C79.431870,31.638380 79.224030,31.302238 78.917953,30.746807 
	C78.819717,30.527519 78.564842,30.120098 78.611267,29.736469 
	C78.089539,28.283993 77.521385,27.215145 76.742767,26.070362 
	C76.532310,25.994425 76.087196,25.948532 75.989639,25.637115 
	C75.952995,24.899586 76.013908,24.473469 76.074829,24.047352 
z"/>
<path fill="#1D1D1D" opacity="1.000000" stroke="none" 
	d="
M18.710815,69.424393 
	C18.877892,64.462494 18.877892,59.927921 18.877892,55.182518 
	C19.344709,55.182518 20.432983,55.182518 21.794476,55.182518 
	C21.794476,60.641106 21.794476,66.032288 21.794476,71.423477 
	C21.461517,71.754379 21.128559,72.085289 20.795601,72.416199 
	C20.044979,71.561371 19.294359,70.706551 18.710815,69.424393 
z"/>
<path fill="#1D1D1D" opacity="1.000000" stroke="none" 
	d="
M3.911354,69.347229 
	C4.044350,64.412582 4.044350,59.902298 4.044350,55.186619 
	C4.496587,55.186619 5.582201,55.186619 6.888729,55.186619 
	C6.888729,60.320522 6.888729,65.392540 6.888729,70.796555 
	C5.752657,70.796555 4.709555,70.807053 3.667210,70.783707 
	C3.531636,70.780670 3.275461,70.534531 3.285191,70.516914 
	C3.428673,70.256927 3.607735,70.016586 3.911354,69.347229 
z"/>
<path fill="#1D1D1D" opacity="1.000000" stroke="none" 
	d="
M90.000359,64.000916 
	C90.000359,66.147484 90.000359,68.294052 90.000359,70.859856 
	C88.704170,70.922752 87.647194,70.974037 86.570572,71.026268 
	C86.570572,65.708588 86.570572,60.607670 86.570572,55.212612 
	C87.244148,55.149826 88.347023,55.047024 89.974709,54.895302 
	C89.974709,57.397156 89.974709,59.689625 89.984360,62.703354 
	C89.996117,63.616714 89.998238,63.808815 90.000359,64.000916 
z"/>
<path fill="#292929" opacity="1.000000" stroke="none" 
	d="
M115.884903,58.898857 
	C115.284729,57.525169 114.772949,56.546371 114.151131,55.357117 
	C118.100616,56.723408 119.670746,58.530895 119.766808,62.248119 
	C119.852760,65.574226 119.219406,68.698891 115.973305,69.885117 
	C115.973305,66.299263 115.973305,62.796509 115.884903,58.898857 
z"/>
<path fill="#1D1D1D" opacity="1.000000" stroke="none" 
	d="
M104.412666,68.647324 
	C101.371185,62.286430 102.009842,59.082806 106.365120,56.253483 
	C106.365120,60.616310 106.365120,65.135071 106.365120,69.865868 
	C105.908440,69.613213 105.288872,69.270432 104.412666,68.647324 
z"/>
<path fill="#B1B1B1" opacity="1.000000" stroke="none" 
	d="
M78.855347,36.005238 
	C79.284645,35.976822 79.713943,35.948410 80.464951,35.944550 
	C80.306160,36.502914 79.817009,37.505291 79.346550,37.496590 
	C75.497009,37.425404 71.650955,37.165737 67.401276,36.988037 
	C66.998703,37.012733 67.052322,36.998993 67.177505,36.701904 
	C67.393974,35.615540 67.485268,34.826256 67.636826,33.787346 
	C68.062607,33.191723 68.428116,32.845734 69.209511,32.664215 
	C70.458633,32.632267 71.291870,32.435844 72.311516,32.539116 
	C74.330872,33.228710 76.163826,33.618610 77.888466,34.247780 
	C77.486763,34.811466 77.193375,35.135880 76.899994,35.460297 
	C77.551781,35.641945 78.203560,35.823589 78.855347,36.005238 
z"/>
<path fill="#303030" opacity="1.000000" stroke="none" 
	d="
M90.371681,63.943748 
	C89.998238,63.808815 89.996117,63.616714 90.030052,63.138714 
	C91.473747,62.623734 92.881393,62.394653 94.703873,62.205700 
	C95.118698,62.245823 95.367104,62.210052 95.367104,62.210052 
	C96.836418,65.285408 98.305733,68.360771 100.506386,72.966866 
	C98.024124,71.109428 96.401985,70.123680 95.068451,68.838486 
	C93.496193,67.323204 92.173759,65.548691 90.371681,63.943748 
z"/>
<path fill="#7F7F7F" opacity="1.000000" stroke="none" 
	d="
M23.866262,16.081093 
	C20.729324,12.680692 23.721729,9.646873 24.440657,6.477081 
	C24.892117,6.788737 25.343575,7.100393 25.971024,8.024195 
	C28.219364,10.074725 29.792957,11.634105 27.463995,14.111067 
	C27.446787,14.086089 27.441767,14.025635 27.304398,13.768131 
	C26.781977,13.696475 26.396923,13.882322 25.871078,14.113510 
	C25.730286,14.158852 25.475060,14.308427 25.499691,14.291548 
	C25.524323,14.274668 25.607666,14.208368 25.438225,14.630514 
	C25.158846,15.335285 25.048906,15.617908 24.678452,15.991180 
	C24.234043,16.081583 24.050152,16.081339 23.866262,16.081093 
z"/>
<path fill="#030303" opacity="1.000000" stroke="none" 
	d="
M37.237347,56.014709 
	C37.059303,60.996952 36.908497,65.980652 36.641743,70.958145 
	C36.624020,71.288834 35.724915,71.572281 34.413582,72.391052 
	C34.413582,66.198349 34.398891,60.821602 34.486279,55.446514 
	C34.488834,55.289272 35.568600,55.149548 36.637463,55.254509 
	C37.164993,55.676479 37.201172,55.845592 37.237347,56.014709 
z"/>
<path fill="#EBEBEB" opacity="1.000000" stroke="none" 
	d="
M50.937359,43.855888 
	C51.834686,45.232452 52.732018,46.609020 53.921326,48.433498 
	C51.296104,48.274044 48.407703,48.098602 45.236210,47.627010 
	C45.023991,46.961639 45.094872,46.592422 45.492805,46.198933 
	C46.435772,46.043385 47.051678,45.912106 48.359116,45.633430 
	C47.239285,45.061169 46.714249,44.792862 46.168022,44.181725 
	C46.051823,42.930859 45.956810,42.022823 45.958820,40.914448 
	C46.427555,40.580032 46.799267,40.445950 47.333870,40.489079 
	C47.496761,40.666286 47.936462,40.470287 47.905991,40.864151 
	C47.957085,41.508545 48.038643,41.759068 48.158596,42.340431 
	C49.110443,43.066147 50.023903,43.461018 50.937359,43.855888 
z"/>
<path fill="#121212" opacity="1.000000" stroke="none" 
	d="
M43.150139,63.160618 
	C44.483891,65.977684 45.817638,68.794746 47.392826,72.121758 
	C41.973991,71.392769 42.150326,65.852036 38.885788,63.254852 
	C40.163689,62.904095 40.940746,62.690807 42.233307,62.588745 
	C42.882580,62.853523 43.016361,63.007072 43.150139,63.160618 
z"/>
<path fill="#D6D6D6" opacity="1.000000" stroke="none" 
	d="
M75.706055,23.956129 
	C76.013908,24.473469 75.952995,24.899586 75.539001,25.678963 
	C72.494766,26.048777 69.803604,26.065325 67.119461,25.710396 
	C67.072281,25.097219 67.018097,24.855524 66.973984,24.368900 
	C67.023941,23.796883 67.015472,23.471050 67.214333,23.030369 
	C67.918549,22.644733 68.367104,22.375206 68.815651,22.105677 
	C70.989525,22.692083 73.163399,23.278494 75.706055,23.956129 
z"/>
<path fill="#121212" opacity="1.000000" stroke="none" 
	d="
M42.560280,62.459618 
	C44.186710,59.703278 44.454445,57.425228 41.898674,54.641594 
	C43.389965,55.544014 46.115940,56.446239 46.116081,57.348892 
	C46.116379,59.240826 44.682068,61.132984 43.493484,63.092834 
	C43.016361,63.007072 42.882580,62.853523 42.560280,62.459618 
z"/>
<path fill="#E1E1E1" opacity="1.000000" stroke="none" 
	d="
M99.014122,23.567478 
	C98.718674,24.100132 98.423225,24.632788 97.878738,25.482788 
	C97.269569,25.875048 96.909439,25.949963 96.382462,25.543976 
	C95.302399,24.701067 94.389206,24.339058 93.427338,23.969036 
	C93.378662,23.961021 93.293098,24.010120 93.231720,23.986992 
	C93.170341,23.963863 93.041145,23.986629 92.994507,23.703936 
	C92.616325,23.233681 92.284767,23.046120 91.953217,22.858559 
	C93.400993,21.890778 94.848763,20.922995 97.004440,20.001215 
	C97.941422,20.041958 98.170486,20.036697 98.470963,20.406816 
	C98.699623,21.710623 98.856873,22.639051 99.014122,23.567478 
z"/>
<path fill="#F1F1F1" opacity="1.000000" stroke="none" 
	d="
M95.710342,62.229038 
	C95.367104,62.210052 95.118698,62.245823 95.060112,62.134850 
	C95.491745,59.799156 95.981956,57.574436 96.472176,55.349720 
	C100.667595,60.081451 100.341225,61.253365 95.710342,62.229038 
z"/>
<path fill="#F1F1F1" opacity="1.000000" stroke="none" 
	d="
M60.637764,62.231770 
	C60.289680,62.216171 60.100197,62.234356 60.052559,62.151962 
	C60.491856,59.830536 60.978790,57.591507 61.465729,55.352478 
	C65.666367,60.102146 65.316628,61.310772 60.637764,62.231770 
z"/>
<path fill="#D6D6D6" opacity="1.000000" stroke="none" 
	d="
M96.549316,26.024878 
	C96.909439,25.949963 97.269569,25.875048 97.893280,25.715483 
	C97.762260,26.496819 97.597115,27.722202 96.923988,28.151974 
	C95.629112,28.978720 94.046623,29.354988 92.174744,29.637604 
	C91.161209,28.640638 90.556343,27.924156 89.988831,26.886044 
	C90.074768,26.354259 90.123352,26.144108 90.516441,25.947458 
	C91.671661,25.310680 92.482384,24.660400 93.293098,24.010120 
	C93.293098,24.010120 93.378662,23.961021 93.723396,24.226051 
	C94.895195,25.002346 95.722252,25.513611 96.549316,26.024878 
z"/>
<path fill="#E1E1E1" opacity="1.000000" stroke="none" 
	d="
M23.118780,32.904186 
	C23.590464,33.511150 23.972143,34.382664 24.213808,35.291412 
	C24.588785,36.701443 24.868368,38.136845 25.546047,40.081028 
	C25.424946,41.075188 24.946188,41.549809 24.467430,42.024429 
	C23.270390,39.945599 22.073347,37.866764 20.924088,35.401417 
	C20.971870,35.014904 21.119160,34.858234 21.119160,34.858234 
	C21.734781,34.300629 22.350403,33.743023 23.118780,32.904186 
z"/>
<path fill="#C9C9C9" opacity="1.000000" stroke="none" 
	d="
M66.987152,36.987465 
	C67.889618,38.713932 68.803635,40.465672 69.767975,42.313854 
	C66.723259,41.100033 64.216110,40.100521 61.520714,38.756603 
	C63.239079,37.941128 65.145699,37.470062 67.052322,36.998993 
	C67.052322,36.998993 66.998703,37.012733 66.987152,36.987465 
z"/>
<path fill="#7F7F7F" opacity="1.000000" stroke="none" 
	d="
M28.038206,26.993797 
	C27.365582,27.211390 26.692955,27.428982 25.799412,27.809942 
	C25.324345,26.652067 25.070192,25.330824 24.874222,23.553993 
	C24.932400,23.098406 24.987461,23.016449 25.326420,22.912405 
	C25.745878,21.896751 25.826382,20.985144 25.948008,19.774715 
	C26.028460,19.278694 26.067789,19.081490 26.363918,18.804573 
	C27.097569,18.516169 27.574423,18.307476 28.024475,18.495787 
	C27.979065,19.956825 27.960459,21.020861 27.709675,22.238411 
	C27.717678,23.651350 27.957861,24.910774 28.102331,26.365276 
	C28.006620,26.560358 28.038206,26.993795 28.038206,26.993797 
z"/>
<path fill="#1D1D1D" opacity="1.000000" stroke="none" 
	d="
M58.025070,21.212677 
	C58.740116,21.203657 59.455166,21.194637 60.530800,21.519272 
	C61.255013,22.218861 61.618641,22.584797 61.992943,23.222736 
	C62.027119,23.856859 62.050621,24.218977 61.704014,24.713409 
	C60.045185,25.068119 58.756466,25.290514 57.160835,25.304617 
	C56.559559,24.713663 56.265186,24.331003 56.106651,23.686043 
	C56.545429,22.952890 56.848370,22.482035 57.393559,22.020847 
	C57.973782,21.856985 58.103535,21.584372 58.025070,21.212677 
z"/>
<path fill="#EBEBEB" opacity="1.000000" stroke="none" 
	d="
M34.970749,9.532532 
	C34.966286,9.868001 34.961826,10.203470 34.997746,11.140129 
	C34.964405,12.439984 34.890690,13.138649 34.468773,13.891714 
	C33.414131,13.939350 32.707684,13.932585 31.887266,13.698782 
	C31.484842,13.307395 31.196390,13.143046 30.872974,12.566061 
	C31.034481,11.073753 31.230955,9.994081 31.427429,8.914408 
	C31.939268,8.896369 32.451107,8.878329 33.577492,9.096289 
	C34.451611,9.399035 34.711178,9.465783 34.970749,9.532532 
z"/>
<path fill="#EEEEEE" opacity="1.000000" stroke="none" 
	d="
M67.177505,36.701904 
	C65.145699,37.470062 63.239079,37.941128 61.132137,38.719688 
	C60.931816,39.027187 60.492756,39.029133 60.260292,38.791264 
	C60.025410,38.385162 60.022999,38.216934 59.934246,37.765274 
	C59.300762,37.343094 58.753613,37.204346 58.206467,37.065594 
	C57.907753,36.902622 57.609035,36.739651 57.186676,36.350010 
	C57.063026,36.123344 56.991989,36.086670 57.278156,36.038895 
	C57.745148,35.969044 57.925972,35.946964 58.457253,35.918964 
	C60.928448,35.699036 63.049187,35.485031 65.520401,35.230766 
	C66.401550,34.800579 66.932228,34.410645 67.490311,34.031837 
	C67.517708,34.042965 67.576561,34.036976 67.576553,34.036976 
	C67.485268,34.826256 67.393974,35.615540 67.177505,36.701904 
z"/>
<path fill="#636363" opacity="1.000000" stroke="none" 
	d="
M31.009563,8.965556 
	C31.230955,9.994081 31.034481,11.073753 30.599918,12.698771 
	C30.229513,13.828508 30.097200,14.412900 29.620171,15.078365 
	C28.677372,14.818308 28.079287,14.477177 27.481203,14.136045 
	C29.792957,11.634105 28.219364,10.074725 26.078918,8.281712 
	C27.537783,8.290290 29.064741,8.653498 31.009563,8.965556 
z"/>
<path fill="#636363" opacity="1.000000" stroke="none" 
	d="
M38.834747,47.581635 
	C36.384853,47.885513 33.934959,48.189388 31.282299,47.895584 
	C31.155340,47.095234 31.231153,46.892567 31.689955,46.677383 
	C33.387760,46.092121 34.702576,45.519379 36.326313,45.136616 
	C37.099575,45.356365 37.563919,45.386131 38.205738,45.587692 
	C38.533726,46.366871 38.684235,46.974255 38.834747,47.581635 
z"/>
<path fill="#959595" opacity="1.000000" stroke="none" 
	d="
M39.239815,47.738552 
	C38.684235,46.974255 38.533726,46.366871 38.158417,45.479645 
	C37.933617,45.199802 38.087509,45.022625 38.249481,45.029697 
	C38.411453,45.036770 38.732212,45.084278 39.162292,45.163300 
	C40.168751,45.161057 40.745129,45.079796 41.497486,44.984222 
	C41.673466,44.969913 42.023666,45.015282 42.210205,45.317055 
	C43.319744,45.820286 44.242744,46.021744 45.165749,46.223202 
	C45.094872,46.592422 45.023991,46.961639 44.868904,47.599285 
	C43.071426,47.876965 41.358150,47.886215 39.239815,47.738552 
z"/>
<path fill="#C9C9C9" opacity="1.000000" stroke="none" 
	d="
M93.231720,23.986992 
	C92.482384,24.660400 91.671661,25.310680 90.315750,25.699528 
	C88.953323,25.322727 88.136093,25.207365 87.318871,25.092001 
	C87.254517,24.904387 87.190170,24.716772 87.066742,24.237560 
	C87.287804,23.054575 87.567947,22.163189 87.938377,20.984524 
	C88.607689,21.714348 89.121994,22.275164 90.087654,23.229950 
	C91.373047,23.744822 92.207100,23.865725 93.041145,23.986629 
	C93.041145,23.986629 93.170341,23.963863 93.231720,23.986992 
z"/>
<path fill="#A1A1A1" opacity="1.000000" stroke="none" 
	d="
M47.936462,40.470287 
	C47.936462,40.470287 47.496761,40.666286 47.586285,40.212723 
	C47.759014,39.280930 47.842224,38.802700 47.925430,38.324471 
	C49.295616,38.358654 50.665802,38.392838 52.071213,38.730606 
	C52.251263,39.817406 52.396088,40.600616 52.214890,41.440193 
	C51.143150,41.579979 50.397434,41.663403 49.619804,41.722054 
	C49.587887,41.697281 49.510258,41.674835 49.289764,41.422745 
	C48.691666,40.937199 48.314064,40.703743 47.936462,40.470287 
z"/>
<path fill="#A1A1A1" opacity="1.000000" stroke="none" 
	d="
M57.803772,20.903700 
	C58.103535,21.584372 57.973782,21.856985 56.961548,22.032463 
	C54.850864,22.018669 53.414433,22.002926 51.978004,21.987183 
	C51.792927,21.977850 51.607853,21.968517 51.143684,21.969326 
	C53.103886,21.517885 55.343178,21.056305 57.803772,20.903700 
z"/>
<path fill="#EEEEEE" opacity="1.000000" stroke="none" 
	d="
M95.802414,40.697708 
	C94.606094,39.855278 93.743561,39.004543 92.881020,38.153809 
	C93.445992,37.776020 94.010956,37.398232 94.575920,37.020443 
	C95.096016,38.243431 95.616104,39.466419 95.802414,40.697708 
z"/>
<path fill="#EEEEEE" opacity="1.000000" stroke="none" 
	d="
M85.622818,35.332523 
	C86.531509,35.896572 87.123360,36.323406 87.715210,36.750240 
	C87.528839,37.146118 87.342461,37.541992 87.156082,37.937870 
	C85.938942,37.314682 84.721802,36.691498 83.504669,36.068314 
	C84.105110,35.777309 84.705544,35.486309 85.622818,35.332523 
z"/>
<path fill="#717171" opacity="1.000000" stroke="none" 
	d="
M89.951477,27.207674 
	C90.556343,27.924156 91.161209,28.640638 91.813385,29.632057 
	C90.649139,29.835878 89.437569,29.764765 88.118706,29.005236 
	C88.038620,27.755198 88.065819,27.193577 88.398766,26.743538 
	C89.120163,26.972637 89.535820,27.090157 89.951477,27.207674 
z"/>
<path fill="#E1E1E1" opacity="1.000000" stroke="none" 
	d="
M24.978703,45.171440 
	C24.079123,45.868298 23.179541,46.565155 22.279961,47.262012 
	C21.966743,46.856911 21.653526,46.451813 21.340309,46.046715 
	C22.195843,45.358570 23.051374,44.670429 24.369461,44.262329 
	C24.880911,44.752064 24.929808,44.961750 24.978703,45.171440 
z"/>
<path fill="#A1A1A1" opacity="1.000000" stroke="none" 
	d="
M23.865185,16.460749 
	C24.050152,16.081339 24.234043,16.081583 24.694374,16.007042 
	C24.970814,15.932254 24.954462,15.965040 25.033426,16.156353 
	C25.112391,16.347668 25.059553,16.758221 25.046852,17.177864 
	C25.050089,18.433542 25.066025,19.269575 25.064747,20.432657 
	C24.984068,21.191957 24.920605,21.624210 24.588531,22.051647 
	C23.962151,22.059719 23.604382,22.072605 23.246614,22.085491 
	C23.452446,20.337130 23.658278,18.588766 23.865185,16.460749 
z"/>
<path fill="#030303" opacity="1.000000" stroke="none" 
	d="
M62.074120,24.581095 
	C62.050621,24.218977 62.027119,23.856859 62.213390,23.097729 
	C62.681740,22.291182 62.940319,21.881649 63.198898,21.472116 
	C63.562183,21.445358 63.925476,21.418602 64.574844,21.660164 
	C64.922188,22.304125 64.983452,22.679771 64.892868,23.338472 
	C64.802498,24.045330 64.863976,24.469130 64.694153,24.810308 
	C64.462852,24.727688 64.023880,24.948179 63.682419,24.877941 
	C62.889362,24.909231 62.437771,25.010763 62.115417,24.997250 
	C62.244656,24.882208 62.074120,24.581095 62.074120,24.581095 
z"/>
<path fill="#EBEBEB" opacity="1.000000" stroke="none" 
	d="
M60.020584,38.048706 
	C60.022999,38.216934 60.025410,38.385162 60.041256,38.806023 
	C59.430092,39.967461 58.805496,40.876278 58.180901,41.785095 
	C57.935047,41.007195 57.689194,40.229290 57.991589,39.222115 
	C59.033421,38.678123 59.527000,38.363415 60.020584,38.048706 
z"/>
<path fill="#EEEEEE" opacity="1.000000" stroke="none" 
	d="
M84.028824,29.350021 
	C84.742851,28.420343 85.470779,27.766727 86.543365,27.443169 
	C86.923866,28.187950 86.959702,28.602674 86.995537,29.017401 
	C86.011269,29.220293 85.026993,29.423187 84.028824,29.350021 
z"/>
<path fill="#303030" opacity="1.000000" stroke="none" 
	d="
M31.306965,46.689899 
	C31.231153,46.892567 31.155340,47.095234 31.045490,47.620682 
	C30.072916,47.352695 29.134380,46.761929 28.497719,45.850163 
	C28.799595,45.529167 29.192656,45.235844 29.394552,45.319836 
	C29.909048,45.467388 30.180273,45.388584 30.601065,45.398117 
	C30.963659,45.982506 31.135313,46.336205 31.306965,46.689899 
z"/>
<path fill="#7F7F7F" opacity="1.000000" stroke="none" 
	d="
M25.351086,45.204285 
	C24.929808,44.961750 24.880911,44.752064 24.693535,44.250534 
	C24.577976,43.524872 24.600897,43.091049 24.545624,42.340828 
	C24.946188,41.549809 25.424946,41.075188 25.881756,40.259109 
	C25.859806,39.917652 25.904669,39.942822 26.271708,40.026001 
	C27.099253,40.150375 27.559761,40.191570 27.981388,40.308449 
	C27.942507,40.384132 28.012409,40.539284 27.741533,40.765373 
	C27.033342,41.722549 26.596027,42.453629 26.158712,43.184711 
	C26.530828,43.177502 26.902943,43.170296 27.418270,43.516327 
	C27.655680,44.105576 27.749876,44.341583 27.844074,44.577591 
	C27.137207,44.797440 26.430338,45.017284 25.351086,45.204285 
z"/>
<path fill="#121212" opacity="1.000000" stroke="none" 
	d="
M99.428406,23.523462 
	C98.856873,22.639051 98.699623,21.710623 98.552841,20.625946 
	C98.976868,20.454786 99.390419,20.439877 99.803970,20.424967 
	C99.816879,21.443127 99.829788,22.461285 99.428406,23.523462 
z"/>
<path fill="#303030" opacity="1.000000" stroke="none" 
	d="
M49.510258,41.674835 
	C49.510258,41.674835 49.587887,41.697281 49.912888,41.903179 
	C50.518288,42.459476 50.798683,42.809879 51.079082,43.160278 
	C51.079082,43.160278 51.030277,43.512577 50.983818,43.684235 
	C50.023903,43.461018 49.110443,43.066147 48.509708,42.271687 
	C49.051704,41.806339 49.280983,41.740585 49.510258,41.674835 
z"/>
<path fill="#EEEEEE" opacity="1.000000" stroke="none" 
	d="
M94.289581,18.055511 
	C94.594566,17.171095 95.060753,16.524799 95.526932,15.878504 
	C95.833206,16.116871 96.139473,16.355238 96.445747,16.593603 
	C95.780754,17.160280 95.115768,17.726955 94.289581,18.055511 
z"/>
<path fill="#636363" opacity="1.000000" stroke="none" 
	d="
M65.044716,23.055416 
	C64.983452,22.679771 64.922188,22.304125 64.847130,21.637741 
	C65.921906,21.593592 67.010468,21.840183 68.457344,22.096226 
	C68.367104,22.375206 67.918549,22.644733 66.895172,23.015839 
	C65.895134,23.096748 65.469925,23.076082 65.044716,23.055416 
z"/>
<path fill="#F7F7F7" opacity="1.000000" stroke="none" 
	d="
M112.274429,71.402435 
	C111.469711,71.303238 110.916252,71.159767 110.362785,71.016289 
	C110.649292,70.717957 111.134010,70.128204 111.191185,70.167091 
	C111.679955,70.499504 112.091225,70.945877 112.274429,71.402435 
z"/>
<path fill="#636363" opacity="1.000000" stroke="none" 
	d="
M100.178787,20.318272 
	C99.390419,20.439877 98.976868,20.454786 98.481430,20.250566 
	C98.170486,20.036697 97.941422,20.041958 97.369698,20.020918 
	C98.202560,20.066936 99.378082,20.139256 100.178787,20.318272 
z"/>
<path fill="#EEEEEE" opacity="1.000000" stroke="none" 
	d="
M91.543037,38.828392 
	C91.098717,39.353928 90.509010,39.679020 89.919296,40.004112 
	C89.837578,39.763336 89.755859,39.522564 89.674141,39.281792 
	C90.248642,39.063847 90.823143,38.845898 91.543037,38.828392 
z"/>
<path fill="#636363" opacity="1.000000" stroke="none" 
	d="
M62.837780,21.278633 
	C62.940319,21.881649 62.681740,22.291182 62.202713,22.825724 
	C61.618641,22.584797 61.255013,22.218861 60.882164,21.587753 
	C61.407513,21.243437 61.942085,21.164291 62.837780,21.278633 
z"/>
<path fill="#636363" opacity="1.000000" stroke="none" 
	d="
M35.224983,9.286318 
	C34.711178,9.465783 34.451611,9.399035 33.823250,9.172325 
	C34.068081,8.508115 34.681705,8.003866 35.573608,7.319991 
	C35.727669,7.773611 35.603443,8.406857 35.224983,9.286318 
z"/>
<path fill="#E1E1E1" opacity="1.000000" stroke="none" 
	d="
M29.192654,45.235844 
	C29.192656,45.235844 28.799595,45.529167 28.554920,45.545086 
	C28.161896,45.364037 28.050018,45.148178 27.909344,44.745514 
	C27.749876,44.341583 27.655680,44.105576 27.405865,43.518021 
	C27.250246,43.166473 27.266016,43.142548 27.656639,43.062195 
	C28.307156,42.925793 28.567049,42.869747 28.950624,42.939331 
	C29.074305,43.064968 29.326595,43.311291 29.274870,43.632019 
	C29.212982,44.380444 29.202818,44.808144 29.192654,45.235844 
z"/>
<path fill="#EEEEEE" opacity="1.000000" stroke="none" 
	d="
M37.536873,56.021965 
	C37.201172,55.845592 37.164993,55.676479 37.034340,55.265766 
	C37.678211,55.024170 38.416561,55.024170 39.154911,55.024170 
	C39.186592,55.214180 39.218269,55.404186 39.249947,55.594196 
	C38.778767,55.739204 38.307583,55.884216 37.536873,56.021965 
z"/>
<path fill="#3F3F3F" opacity="1.000000" stroke="none" 
	d="
M51.326416,43.067528 
	C50.798683,42.809879 50.518288,42.459476 49.944809,41.927948 
	C50.397434,41.663403 51.143150,41.579979 51.989868,41.779816 
	C51.918503,42.366978 51.746128,42.670876 51.326416,43.067528 
z"/>
<path fill="#959595" opacity="1.000000" stroke="none" 
	d="
M59.934246,37.765274 
	C59.527000,38.363415 59.033421,38.678123 58.245392,39.002426 
	C57.985321,38.576248 58.019695,38.140480 58.130272,37.385155 
	C58.753613,37.204346 59.300762,37.343094 59.934246,37.765274 
z"/>
<path fill="#A1A1A1" opacity="1.000000" stroke="none" 
	d="
M92.994507,23.703936 
	C92.207100,23.865725 91.373047,23.744822 90.341278,23.378252 
	C90.547005,23.080971 90.950447,23.029356 91.653549,22.918150 
	C92.284767,23.046120 92.616325,23.233681 92.994507,23.703936 
z"/>
<path fill="#EEEEEE" opacity="1.000000" stroke="none" 
	d="
M91.489655,17.463478 
	C91.910889,17.388931 92.170906,17.472069 92.430916,17.555210 
	C92.140686,17.838673 91.850449,18.122133 91.560211,18.405594 
	C91.482948,18.144115 91.405685,17.882639 91.489655,17.463478 
z"/>
<path fill="#EEEEEE" opacity="1.000000" stroke="none" 
	d="
M17.862617,29.279583 
	C18.061493,29.601345 18.035158,29.953875 18.008821,30.306402 
	C17.763168,30.231752 17.517513,30.157101 17.271860,30.082449 
	C17.393707,29.825081 17.515554,29.567715 17.862617,29.279583 
z"/>
<path fill="#636363" opacity="1.000000" stroke="none" 
	d="
M87.234428,29.051430 
	C86.959702,28.602674 86.923866,28.187950 86.863426,27.461704 
	C86.987312,27.008593 87.135811,26.866999 87.612595,26.578903 
	C87.940895,26.432402 88.093033,26.631958 88.093033,26.631958 
	C88.065819,27.193577 88.038620,27.755198 87.980865,28.737782 
	C87.950317,29.158743 87.473320,29.085457 87.234428,29.051430 
z"/>
<path fill="#7F7F7F" opacity="1.000000" stroke="none" 
	d="
M23.311455,22.370640 
	C23.604382,22.072605 23.962151,22.059719 24.639660,22.289097 
	C24.959402,22.531361 24.987461,23.016449 24.987461,23.016449 
	C24.987461,23.016449 24.932400,23.098406 24.901905,23.149271 
	C24.373039,23.018686 23.874668,22.837236 23.311455,22.370640 
z"/>
<path fill="#F7F7F7" opacity="1.000000" stroke="none" 
	d="
M114.466354,71.445259 
	C114.523300,71.410416 114.409401,71.480103 114.466354,71.445259 
z"/>
<path fill="#EEEEEE" opacity="1.000000" stroke="none" 
	d="
M89.996277,35.997162 
	C89.908661,36.033810 89.821037,36.070457 89.866714,36.053551 
	C90.000000,36.000000 89.996277,35.997162 89.996277,35.997162 
z"/>
<path fill="#EEEEEE" opacity="1.000000" stroke="none" 
	d="
M90.001442,36.001865 
	C90.090347,35.966022 90.177803,35.928314 90.130768,35.943886 
	C89.996277,35.997162 90.000000,36.000000 90.001442,36.001865 
z"/>
<path fill="#F7F7F7" opacity="1.000000" stroke="none" 
	d="
M112.553116,55.463917 
	C112.590096,55.523914 112.516129,55.403919 112.553116,55.463917 
z"/>
<path fill="#F7F7F7" opacity="1.000000" stroke="none" 
	d="
M109.558548,55.462563 
	C109.596985,55.523972 109.520111,55.401154 109.558548,55.462563 
z"/>
<path fill="#E1E1E1" opacity="1.000000" stroke="none" 
	d="
M20.893076,35.088055 
	C20.724121,34.942604 20.633961,34.724003 20.543798,34.505402 
	C20.664957,34.535896 20.786116,34.566391 21.013218,34.727562 
	C21.119160,34.858234 20.971870,35.014904 20.893076,35.088055 
z"/>
<path fill="#EBEBEB" opacity="1.000000" stroke="none" 
	d="
M55.530052,43.543297 
	C55.478386,43.573498 55.581718,43.513100 55.530052,43.543297 
z"/>
<path fill="#1D1D1D" opacity="1.000000" stroke="none" 
	d="
M31.952141,29.943470 
	C31.373446,29.109079 30.794748,28.274693 30.011154,26.981598 
	C29.806253,26.522892 29.836056,26.117838 29.971848,25.766853 
	C29.722189,24.607885 29.336739,23.799900 28.988249,22.712639 
	C29.091961,22.063816 29.158716,21.694267 29.462830,21.377651 
	C30.160740,21.592201 30.621290,21.753820 31.406456,21.967274 
	C32.464760,21.259773 33.198448,20.500441 33.943153,20.080662 
	C33.991447,20.643461 34.028732,20.866705 34.116982,21.360470 
	C34.589298,21.941900 35.010639,22.252811 35.687943,22.727709 
	C36.298046,23.087950 36.652195,23.284204 37.006340,23.480459 
	C37.284100,26.022223 41.876740,30.072102 33.994366,29.917250 
	C32.828510,29.860083 32.390327,29.901775 31.952141,29.943470 
z"/>
<path fill="#A1A1A1" opacity="1.000000" stroke="none" 
	d="
M29.394550,45.319836 
	C29.202818,44.808144 29.212982,44.380444 29.436756,43.465919 
	C29.588276,42.715633 29.526184,42.452168 29.464090,42.188698 
	C29.251707,42.397030 29.039324,42.605362 28.826942,42.813698 
	C28.567049,42.869747 28.307156,42.925793 27.915419,42.672058 
	C27.859852,41.754612 27.936131,41.146946 28.012409,40.539284 
	C28.012409,40.539284 27.942507,40.384132 27.939066,39.858818 
	C27.956034,39.035347 27.976442,38.737198 27.996851,38.439049 
	C28.811831,38.589741 29.626810,38.740433 31.051739,39.028805 
	C32.753792,38.909172 33.845894,38.651859 34.964134,38.653015 
	C35.693340,38.420895 36.396412,37.930302 37.099483,37.439705 
	C38.130402,37.318043 39.161324,37.196381 40.558952,37.445290 
	C40.916939,38.236912 40.908207,38.657959 40.572556,39.088966 
	C39.823803,39.754013 39.401970,40.409100 38.979111,41.027786 
	C38.978092,40.991383 39.050423,40.982849 38.778748,41.006210 
	C38.054199,41.263065 37.601326,41.496555 37.092079,42.074486 
	C37.005489,42.649632 36.975269,42.880341 36.554298,43.052021 
	C35.900085,42.994919 35.636635,42.996841 35.392914,43.002319 
	C35.412640,43.005878 35.451462,43.004177 35.091747,42.948166 
	C34.094154,42.584454 33.456280,42.276756 32.648365,41.986618 
	C32.478325,42.004185 32.135220,42.022995 31.899363,41.888641 
	C31.497387,42.814701 31.331268,43.875107 30.981846,45.011238 
	C30.798538,45.086960 30.410124,45.167419 30.410124,45.167419 
	C30.180273,45.388584 29.909048,45.467388 29.394550,45.319836 
z"/>
<path fill="#C9C9C9" opacity="1.000000" stroke="none" 
	d="
M37.393517,23.387833 
	C36.652195,23.284204 36.298046,23.087950 35.932121,22.397369 
	C36.687466,19.677851 37.454594,17.452656 38.275551,14.923433 
	C38.894886,14.066223 39.460388,13.513041 40.052895,13.291872 
	C40.723698,14.443384 41.367500,15.262882 42.020020,16.444664 
	C42.758976,17.558067 43.489220,18.309187 44.146484,19.339888 
	C43.998390,19.995661 43.923267,20.371851 43.628914,20.901783 
	C43.252171,21.366314 43.094662,21.677105 42.937153,21.987894 
	C42.937153,21.987894 43.016224,22.015818 43.036228,21.979313 
	C41.297718,22.393606 39.539207,22.844404 37.393517,23.387833 
z"/>
<path fill="#EBEBEB" opacity="1.000000" stroke="none" 
	d="
M50.728806,29.514709 
	C50.799786,28.954248 50.870766,28.393785 51.017986,27.133284 
	C51.125305,26.057970 51.156384,25.682699 51.452847,25.123032 
	C51.992241,24.622149 52.266254,24.305660 52.706459,24.132759 
	C53.232040,24.732233 53.591431,25.188120 53.840565,26.029812 
	C53.770470,26.680092 53.810631,26.944561 53.828316,27.416740 
	C53.805840,27.624449 53.993355,27.997854 54.036591,28.272409 
	C54.093376,28.731762 54.106926,28.916557 54.120468,29.101353 
	C53.770561,29.782448 53.420654,30.463541 52.563564,30.901890 
	C51.613857,30.277664 51.171333,29.896187 50.728806,29.514709 
z"/>
<path fill="#A1A1A1" opacity="1.000000" stroke="none" 
	d="
M57.467743,25.512913 
	C58.756466,25.290514 60.045185,25.068119 61.704014,24.713409 
	C62.074120,24.581095 62.244656,24.882208 62.137596,25.216373 
	C62.030537,25.550539 61.989746,25.989214 61.738304,26.045256 
	C61.209721,26.297791 60.932579,26.494284 60.352478,26.793766 
	C59.390179,27.941584 58.730843,28.986408 58.071510,30.031235 
	C57.642490,29.543943 57.213470,29.056650 56.499557,28.282646 
	C56.207443,27.798628 56.170277,27.607103 56.330650,27.225555 
	C56.861336,26.524136 57.164539,26.018524 57.467743,25.512913 
z"/>
<path fill="#4E4E4E" opacity="1.000000" stroke="none" 
	d="
M40.899475,39.079010 
	C40.908207,38.657959 40.916939,38.236912 40.873940,37.500732 
	C41.445366,37.317413 42.068523,37.449226 42.879074,38.182861 
	C43.079353,39.208740 43.092236,39.632797 43.043617,40.270050 
	C42.982117,40.483246 42.927322,40.923634 42.702820,41.134163 
	C41.960960,42.223518 41.443604,43.102345 40.647591,44.003876 
	C40.182785,44.016582 39.996635,44.006577 39.955154,43.648193 
	C40.076164,42.551945 40.052509,41.804070 40.221832,40.849766 
	C40.576363,40.121899 40.737919,39.600452 40.899475,39.079010 
z"/>
<path fill="#C9C9C9" opacity="1.000000" stroke="none" 
	d="
M43.105114,40.056850 
	C43.092236,39.632797 43.079353,39.208740 43.044422,38.465469 
	C44.409195,38.072594 45.796021,37.998936 47.554138,38.124878 
	C47.842224,38.802700 47.759014,39.280930 47.423393,40.035515 
	C46.799267,40.445950 46.427555,40.580032 45.753498,41.003586 
	C45.220016,41.498043 45.056889,41.747520 44.754070,41.857445 
	C44.065945,41.134541 43.585529,40.595695 43.105114,40.056850 
z"/>
<path fill="#F1F1F1" opacity="1.000000" stroke="none" 
	d="
M58.026112,30.422440 
	C58.730843,28.986408 59.390179,27.941584 60.603546,27.004383 
	C61.326134,27.251005 61.494686,27.390001 61.544998,27.822227 
	C61.209785,28.706842 60.992809,29.298227 60.501778,30.075291 
	C59.961288,31.249943 59.694855,32.238918 59.319775,33.419601 
	C59.211128,33.611309 58.979713,33.986370 58.664383,33.985039 
	C58.139221,33.970917 57.929390,33.958118 57.719559,33.945316 
	C57.806610,32.901428 57.893665,31.857536 58.026112,30.422440 
z"/>
<path fill="#A1A1A1" opacity="1.000000" stroke="none" 
	d="
M50.500305,29.584629 
	C51.171333,29.896187 51.613857,30.277664 52.274410,30.916134 
	C52.492435,31.173122 52.374397,31.219366 51.991795,31.183592 
	C51.428120,31.719538 51.247044,32.291256 51.065971,32.862976 
	C50.480686,32.817516 49.895405,32.772057 49.049820,32.203835 
	C48.462643,31.498245 48.135761,31.315416 47.808884,31.132589 
	C47.808884,31.132589 47.783779,31.217190 47.744129,31.234789 
	C48.560253,30.719774 49.416027,30.187162 50.500305,29.584629 
z"/>
<path fill="#959595" opacity="1.000000" stroke="none" 
	d="
M31.876589,30.345428 
	C32.390327,29.901775 32.828510,29.860083 33.600513,29.917412 
	C32.536823,30.740255 37.252823,33.636589 32.398689,33.221825 
	C31.945856,32.366734 31.873447,31.557062 31.876589,30.345428 
z"/>
<path fill="#303030" opacity="1.000000" stroke="none" 
	d="
M37.076019,37.204506 
	C36.396412,37.930302 35.693340,38.420895 34.906204,38.346527 
	C34.531998,37.236717 34.241859,36.691864 34.309952,36.115719 
	C35.147758,36.055176 35.627338,36.025925 36.106918,35.996674 
	C36.422131,36.320885 36.737347,36.645096 37.076019,37.204506 
z"/>
<path fill="#030303" opacity="1.000000" stroke="none" 
	d="
M31.370926,35.898987 
	C31.388031,35.335701 31.405138,34.772415 31.706114,34.102509 
	C32.803410,34.095642 33.616837,34.195404 34.412724,34.560783 
	C34.198200,34.867378 34.001217,34.908344 33.564751,35.067112 
	C32.673820,35.422943 32.022373,35.660965 31.370926,35.898987 
z"/>
<path fill="#7F7F7F" opacity="1.000000" stroke="none" 
	d="
M56.103165,27.421364 
	C56.170277,27.607103 56.207443,27.798628 56.199089,28.133392 
	C55.752193,28.522505 55.320869,28.774158 54.505009,29.063583 
	C54.106926,28.916557 54.093376,28.731762 54.134102,28.236771 
	C54.188377,27.926575 54.499142,27.694687 54.884903,27.536903 
	C55.548168,27.393202 55.825665,27.407282 56.103165,27.421364 
z"/>
<path fill="#C9C9C9" opacity="1.000000" stroke="none" 
	d="
M57.470924,34.102131 
	C57.929390,33.958118 58.139221,33.970917 58.606461,34.250633 
	C58.611511,34.986664 58.359154,35.455776 58.106796,35.924889 
	C57.925972,35.946964 57.745148,35.969044 57.291256,36.001129 
	C57.086224,35.427074 57.154259,34.843010 57.470924,34.102131 
z"/>
<path fill="#EBEBEB" opacity="1.000000" stroke="none" 
	d="
M51.409222,32.820179 
	C51.247044,32.291256 51.428120,31.719538 51.938580,31.149151 
	C52.096134,31.692785 51.924301,32.235085 51.409222,32.820179 
z"/>
<path fill="#4E4E4E" opacity="1.000000" stroke="none" 
	d="
M33.804237,34.949306 
	C34.001217,34.908344 34.198200,34.867378 34.676994,34.717087 
	C35.264828,34.878147 35.570847,35.148525 35.991890,35.707787 
	C35.627338,36.025925 35.147758,36.055176 34.222610,35.822006 
	C33.786106,35.356163 33.795170,35.152737 33.804237,34.949306 
z"/>
<path fill="#B9B9B9" opacity="1.000000" stroke="none" 
	d="
M47.811180,31.442902 
	C48.135761,31.315416 48.462643,31.498245 48.862938,31.964687 
	C48.562065,32.083271 48.187771,31.918242 47.811180,31.442902 
z"/>
<path fill="#B9B9B9" opacity="1.000000" stroke="none" 
	d="
M44.219460,19.060307 
	C43.489220,18.309187 42.758976,17.558067 42.204720,16.225620 
	C42.699345,15.441367 43.017975,15.238442 43.336609,15.035518 
	C44.471996,15.074175 45.607388,15.112833 47.165665,15.214583 
	C46.829811,16.315151 46.071068,17.352627 44.990368,18.682951 
	C44.668411,18.975801 44.219460,19.060307 44.219460,19.060307 
z"/>
<path fill="#B9B9B9" opacity="1.000000" stroke="none" 
	d="
M47.051247,10.785612 
	C47.023350,10.430067 46.995453,10.074522 46.953781,9.451851 
	C48.167995,10.004139 49.395992,10.823552 50.143913,11.541710 
	C48.792976,11.222173 47.922112,11.003892 47.051247,10.785612 
z"/>
<path fill="#F1F1F1" opacity="1.000000" stroke="none" 
	d="
M46.857910,10.982394 
	C47.922112,11.003892 48.792976,11.222173 49.840477,11.732492 
	C49.959789,12.354995 49.804314,12.629956 49.336365,12.958872 
	C48.302891,12.438610 47.483734,11.808894 46.857910,10.982394 
z"/>
<path fill="#717171" opacity="1.000000" stroke="none" 
	d="
M44.146484,19.339888 
	C44.219460,19.060307 44.668411,18.975801 44.896423,18.989983 
	C45.731838,19.539436 46.339233,20.074711 46.712749,21.025534 
	C46.478867,21.441084 46.081036,21.467157 46.081036,21.467157 
	C46.081036,21.467157 45.712074,21.333111 45.212296,21.103226 
	C44.424393,20.831572 44.136269,20.789806 43.848145,20.748043 
	C43.923267,20.371851 43.998390,19.995661 44.146484,19.339888 
z"/>
<path fill="#171717" opacity="1.000000" stroke="none" 
	d="
M33.564751,35.067112 
	C33.795170,35.152737 33.786106,35.356163 33.864380,35.853298 
	C34.241859,36.691864 34.531998,37.236717 34.880066,38.088058 
	C33.845894,38.651859 32.753792,38.909172 31.326427,39.087173 
	C31.028278,38.221188 31.065390,37.434505 31.236713,36.273407 
	C32.022373,35.660965 32.673820,35.422943 33.564751,35.067112 
z"/>
<path fill="#E1E1E1" opacity="1.000000" stroke="none" 
	d="
M27.622284,38.534245 
	C27.976442,38.737198 27.956034,39.035347 27.977947,39.783134 
	C27.559761,40.191570 27.099253,40.150375 26.296909,40.031136 
	C26.385954,39.511875 26.816835,39.070656 27.622284,38.534245 
z"/>
<path fill="#1D1D1D" opacity="1.000000" stroke="none" 
	d="
M28.268679,26.987940 
	C28.038206,26.993795 28.006620,26.560358 28.260160,26.335363 
	C28.513700,26.110369 28.820389,26.013281 28.931519,26.247866 
	C29.015120,26.653297 28.987593,26.824146 28.960066,26.994993 
	C28.960066,26.994993 28.499151,26.982084 28.268679,26.987940 
z"/>
<path fill="#7F7F7F" opacity="1.000000" stroke="none" 
	d="
M29.173973,26.971624 
	C28.987593,26.824146 29.015120,26.653297 29.185780,26.275053 
	C29.497957,26.084383 29.667006,26.101110 29.836056,26.117838 
	C29.836056,26.117838 29.806253,26.522892 29.812008,26.725498 
	C29.817764,26.928104 29.387880,26.948256 29.173973,26.971624 
z"/>
<path fill="#3F3F3F" opacity="1.000000" stroke="none" 
	d="
M40.025890,12.959858 
	C39.460388,13.513041 38.894886,14.066223 38.050076,14.956589 
	C37.460938,15.364763 37.163116,15.469849 36.887699,15.445271 
	C36.898090,15.281511 36.996120,14.966065 36.927177,14.639247 
	C36.900417,13.871549 36.942596,13.430669 36.984772,12.989789 
	C38.160290,12.253015 39.335812,11.516240 40.835060,11.094501 
	C41.109791,11.609694 41.060783,11.809855 40.777370,12.117579 
	C40.347191,12.493888 40.151409,12.762633 39.974205,13.014492 
	C39.992783,12.997604 40.025890,12.959858 40.025890,12.959858 
z"/>
<path fill="#3F3F3F" opacity="1.000000" stroke="none" 
	d="
M43.209427,14.725178 
	C43.017975,15.238442 42.699345,15.441367 42.196007,15.863337 
	C41.367500,15.262882 40.723698,14.443384 40.052895,13.291872 
	C40.025890,12.959858 39.992783,12.997604 40.301151,13.006710 
	C41.254303,13.072694 41.899086,13.129571 42.543869,13.186447 
	C42.723328,13.595911 42.902790,14.005375 43.209427,14.725178 
z"/>
<path fill="#B1B1B1" opacity="1.000000" stroke="none" 
	d="
M36.760918,12.820599 
	C36.942596,13.430669 36.900417,13.871549 36.619282,14.634973 
	C35.994766,15.092411 35.609203,15.227305 35.129333,14.979017 
	C34.962341,14.342993 34.889656,14.090153 34.816971,13.837314 
	C34.890690,13.138649 34.964405,12.439984 35.036835,11.390212 
	C35.536053,11.576539 36.036560,12.113974 36.760918,12.820599 
z"/>
<path fill="#B9B9B9" opacity="1.000000" stroke="none" 
	d="
M42.836388,13.080602 
	C41.899086,13.129571 41.254303,13.072694 40.282574,13.023598 
	C40.151409,12.762633 40.347191,12.493888 41.032936,12.045265 
	C41.682968,11.565928 41.843033,11.266469 42.003098,10.967010 
	C42.003098,10.967010 42.005653,11.005385 42.353371,10.999645 
	C43.148579,11.156104 43.596066,11.318304 44.043556,11.480503 
	C43.738674,11.978588 43.433792,12.476671 42.836388,13.080602 
z"/>
<path fill="#7F7F7F" opacity="1.000000" stroke="none" 
	d="
M44.343826,11.367674 
	C43.596066,11.318304 43.148579,11.156104 42.334801,10.994640 
	C42.371346,10.737765 42.774170,10.480156 43.671204,10.367629 
	C44.343418,10.547041 44.521431,10.581369 44.699448,10.615699 
	C44.680996,10.828747 44.662548,11.041796 44.343826,11.367674 
z"/>
<path fill="#B9B9B9" opacity="1.000000" stroke="none" 
	d="
M44.652565,10.471858 
	C44.521431,10.581369 44.343418,10.547041 43.942539,10.355841 
	C44.044006,10.088176 44.339344,10.131192 44.652565,10.471858 
z"/>
<path fill="#7F7F7F" opacity="1.000000" stroke="none" 
	d="
M41.821865,10.858850 
	C41.843033,11.266469 41.682968,11.565928 41.267338,11.937702 
	C41.060783,11.809855 41.109791,11.609694 41.189739,11.101444 
	C41.220684,10.793354 41.640633,10.750691 41.821865,10.858850 
z"/>
<path fill="#F7F7F7" opacity="1.000000" stroke="none" 
	d="
M53.950821,25.644005 
	C53.591431,25.188120 53.232040,24.732233 52.562035,23.897739 
	C52.150478,23.365149 52.049534,23.211168 51.948586,23.057186 
	C51.935707,22.878393 51.922832,22.699602 51.943985,22.253998 
	C53.414433,22.002926 54.850864,22.018669 56.719303,22.022797 
	C56.848370,22.482035 56.545429,22.952890 55.834953,23.792065 
	C54.935219,24.654926 54.443020,25.149466 53.950821,25.644005 
z"/>
<path fill="#A1A1A1" opacity="1.000000" stroke="none" 
	d="
M51.187466,25.307426 
	C51.156384,25.682699 51.125305,26.057970 51.034157,26.709913 
	C50.251404,26.854797 49.528725,26.723011 48.806042,26.591225 
	C49.082966,26.239103 49.359886,25.886980 50.105591,25.355064 
	C50.778740,25.219322 50.983101,25.263374 51.187466,25.307426 
z"/>
<path fill="#636363" opacity="1.000000" stroke="none" 
	d="
M51.452847,25.123032 
	C50.983101,25.263374 50.778740,25.219322 50.263283,25.134792 
	C50.365692,24.386705 50.779198,23.679098 51.570641,23.014338 
	C52.049534,23.211168 52.150478,23.365149 52.395844,23.754150 
	C52.266254,24.305660 51.992241,24.622149 51.452847,25.123032 
z"/>
<path fill="#121212" opacity="1.000000" stroke="none" 
	d="
M43.628914,20.901783 
	C44.136269,20.789806 44.424393,20.831572 45.143761,20.942337 
	C44.912560,21.587223 44.250111,22.163111 43.262405,22.363445 
	C43.094662,21.677105 43.252171,21.366314 43.628914,20.901783 
z"/>
<path fill="#F7F7F7" opacity="1.000000" stroke="none" 
	d="
M64.892868,23.338472 
	C65.469925,23.076082 65.895134,23.096748 66.639511,23.131945 
	C67.015472,23.471050 67.023941,23.796883 66.668617,24.534906 
	C66.606255,25.324518 66.859352,25.703196 67.112442,26.081873 
	C69.803604,26.065325 72.494766,26.048777 75.636566,25.990379 
	C76.087196,25.948532 76.532310,25.994425 76.713638,26.406925 
	C75.996735,28.655695 75.439247,30.319569 78.564842,30.120098 
	C78.564842,30.120098 78.819717,30.527519 78.924057,31.053974 
	C79.053955,31.783581 79.079514,31.986729 79.105080,32.189877 
	C79.105080,32.189877 79.046974,32.602989 78.780785,32.924706 
	C78.269676,33.451313 78.097076,33.705345 77.996780,34.008514 
	C76.163826,33.618610 74.330872,33.228710 72.591309,32.295807 
	C71.529610,30.779737 70.374512,29.806664 69.325737,28.923155 
	C68.560349,29.249556 67.377930,29.753801 65.876953,30.156284 
	C64.891167,30.031931 64.223938,30.009342 63.435417,29.693571 
	C63.548077,28.609138 63.782040,27.817884 64.365547,26.928192 
	C64.838364,26.385393 64.961639,25.941031 65.164207,25.314264 
	C65.243500,25.131859 64.925461,24.892929 64.925461,24.892929 
	C64.863976,24.469130 64.802498,24.045330 64.892868,23.338472 
z"/>
<path fill="#D6D6D6" opacity="1.000000" stroke="none" 
	d="
M78.611267,29.736469 
	C75.439247,30.319569 75.996735,28.655695 76.924103,26.482862 
	C77.521385,27.215145 78.089539,28.283993 78.611267,29.736469 
z"/>
<path fill="#EEEEEE" opacity="1.000000" stroke="none" 
	d="
M88.398773,26.743538 
	C88.093033,26.631958 87.940895,26.432402 87.834694,26.365849 
	C87.585228,26.044075 87.443802,25.787844 87.311539,25.311302 
	C88.136093,25.207365 88.953323,25.322727 89.971237,25.686024 
	C90.123352,26.144108 90.074768,26.354259 89.988831,26.886044 
	C89.535820,27.090157 89.120163,26.972637 88.398773,26.743538 
z"/>
<path fill="#E1E1E1" opacity="1.000000" stroke="none" 
	d="
M77.888466,34.247784 
	C78.097076,33.705345 78.269676,33.451313 78.710701,33.121170 
	C78.920242,33.748707 78.933670,34.501495 78.901222,35.629761 
	C78.203560,35.823589 77.551781,35.641945 76.899994,35.460297 
	C77.193375,35.135880 77.486763,34.811466 77.888466,34.247784 
z"/>
<path fill="#E1E1E1" opacity="1.000000" stroke="none" 
	d="
M79.372391,32.082199 
	C79.079514,31.986729 79.053955,31.783581 79.022293,31.273264 
	C79.224030,31.302238 79.431870,31.638380 79.372391,32.082199 
z"/>
<path fill="#4E4E4E" opacity="1.000000" stroke="none" 
	d="
M66.195511,30.258049 
	C67.377930,29.753801 68.560349,29.249556 69.325737,28.923155 
	C70.374512,29.806664 71.529610,30.779737 72.404907,31.996117 
	C71.291870,32.435844 70.458633,32.632267 68.876541,32.478489 
	C67.125343,31.978737 66.122993,31.829185 65.272156,31.514915 
	C65.680954,30.986149 65.938232,30.622097 66.195511,30.258049 
z"/>
<path fill="#EBEBEB" opacity="1.000000" stroke="none" 
	d="
M65.120644,31.679632 
	C66.122993,31.829185 67.125343,31.978737 68.460663,32.314018 
	C68.428116,32.845734 68.062607,33.191723 67.636826,33.787346 
	C67.576561,34.036976 67.517708,34.042965 67.116501,33.808418 
	C66.149559,33.695278 65.583809,33.816689 64.667511,33.929588 
	C63.236301,33.594643 62.155659,33.268215 61.219170,32.667976 
	C62.615765,32.155987 63.868206,31.917810 65.120644,31.679632 
z"/>
<path fill="#A1A1A1" opacity="1.000000" stroke="none" 
	d="
M27.463995,14.111067 
	C28.079287,14.477177 28.677372,14.818308 29.704559,15.079241 
	C30.133661,14.999043 30.298929,15.033307 30.293404,15.328901 
	C30.239140,16.013622 30.190401,16.402748 29.887970,16.720291 
	C29.298655,16.579615 28.963034,16.510525 28.264145,16.366394 
	C26.918737,16.182585 25.936600,16.073812 24.954462,15.965040 
	C24.954462,15.965040 24.970814,15.932254 24.954891,15.916393 
	C25.048906,15.617908 25.158846,15.335285 25.425434,14.657618 
	C25.582085,14.262573 25.475060,14.308427 25.475060,14.308427 
	C25.475060,14.308427 25.730286,14.158852 26.231419,14.197580 
	C26.968958,14.166084 27.205362,14.095860 27.441767,14.025635 
	C27.441767,14.025635 27.446787,14.086089 27.463995,14.111067 
z"/>
<path fill="#636363" opacity="1.000000" stroke="none" 
	d="
M27.304398,13.768131 
	C27.205362,14.095860 26.968958,14.166084 26.372211,14.152239 
	C26.396923,13.882322 26.781977,13.696475 27.304398,13.768131 
z"/>
<path fill="#1D1D1D" opacity="1.000000" stroke="none" 
	d="
M25.499691,14.291548 
	C25.475060,14.308427 25.582085,14.262573 25.594875,14.235471 
	C25.607666,14.208368 25.524323,14.274668 25.499691,14.291548 
z"/>
<path fill="#4E4E4E" opacity="1.000000" stroke="none" 
	d="
M45.492805,46.198933 
	C44.242744,46.021744 43.319744,45.820286 42.477844,45.290894 
	C42.735031,44.929031 42.911110,44.895103 43.389072,44.924778 
	C44.099442,44.946632 44.507931,44.904892 45.256432,44.860504 
	C45.794037,44.746758 45.991627,44.635658 46.189213,44.524555 
	C46.714249,44.792862 47.239285,45.061169 48.359116,45.633430 
	C47.051678,45.912106 46.435772,46.043385 45.492805,46.198933 
z"/>
<path fill="#B1B1B1" opacity="1.000000" stroke="none" 
	d="
M46.168022,44.181725 
	C45.991627,44.635658 45.794037,44.746758 45.300236,44.509586 
	C44.989948,43.454708 44.975864,42.748108 44.961781,42.041504 
	C45.056889,41.747520 45.220016,41.498043 45.656479,41.203926 
	C45.956810,42.022823 46.051823,42.930859 46.168022,44.181725 
z"/>
<path fill="#3F3F3F" opacity="1.000000" stroke="none" 
	d="
M49.289764,41.422745 
	C49.280983,41.740585 49.051704,41.806339 48.471317,41.940842 
	C48.038643,41.759068 47.957085,41.508545 47.905991,40.864151 
	C48.314064,40.703743 48.691666,40.937199 49.289764,41.422745 
z"/>
<path fill="#B1B1B1" opacity="1.000000" stroke="none" 
	d="
M67.119461,25.710396 
	C66.859352,25.703196 66.606255,25.324518 66.658539,24.779835 
	C67.018097,24.855524 67.072281,25.097219 67.119461,25.710396 
z"/>
<path fill="#636363" opacity="1.000000" stroke="none" 
	d="
M96.382462,25.543976 
	C95.722252,25.513611 94.895195,25.002346 93.772064,24.234064 
	C94.389206,24.339058 95.302399,24.701067 96.382462,25.543976 
z"/>
<path fill="#4E4E4E" opacity="1.000000" stroke="none" 
	d="
M29.971848,25.766853 
	C29.667006,26.101110 29.497957,26.084383 29.074650,26.040468 
	C28.820389,26.013281 28.513700,26.110369 28.355871,26.140282 
	C27.957861,24.910774 27.717678,23.651350 27.832516,22.435677 
	C28.390652,22.726946 28.645237,22.897776 28.951290,22.991915 
	C29.336739,23.799900 29.722189,24.607885 29.971848,25.766853 
z"/>
<path fill="#1D1D1D" opacity="1.000000" stroke="none" 
	d="
M25.033426,16.156355 
	C25.936600,16.073812 26.918737,16.182585 28.046345,16.719395 
	C28.114058,17.408352 28.036299,17.669271 27.975462,17.975782 
	C27.992382,18.021376 28.051277,18.098782 28.051277,18.098782 
	C27.574423,18.307476 27.097569,18.516169 26.309937,18.493366 
	C25.685957,17.760654 25.372755,17.259438 25.059553,16.758221 
	C25.059553,16.758221 25.112391,16.347668 25.033426,16.156355 
z"/>
<path fill="#959595" opacity="1.000000" stroke="none" 
	d="
M28.988247,22.712639 
	C28.645237,22.897776 28.390652,22.726946 28.064693,22.282160 
	C27.960459,21.020861 27.979065,19.956825 28.024475,18.495787 
	C28.051277,18.098782 27.992382,18.021376 28.212879,18.029966 
	C28.433378,18.038557 28.891621,18.203482 28.917923,18.594780 
	C29.037973,19.765627 29.131720,20.545172 29.225468,21.324718 
	C29.158716,21.694267 29.091961,22.063816 28.988247,22.712639 
z"/>
<path fill="#B9B9B9" opacity="1.000000" stroke="none" 
	d="
M25.046852,17.177864 
	C25.372755,17.259438 25.685957,17.760654 26.053139,18.573078 
	C26.067789,19.081490 26.028460,19.278694 25.740604,19.748180 
	C25.492077,20.020460 25.081961,20.105610 25.081961,20.105610 
	C25.066025,19.269575 25.050089,18.433542 25.046852,17.177864 
z"/>
<path fill="#F1F1F1" opacity="1.000000" stroke="none" 
	d="
M25.064747,20.432657 
	C25.081961,20.105610 25.492077,20.020460 25.699482,20.046997 
	C25.826382,20.985144 25.745878,21.896751 25.326420,22.912405 
	C24.987461,23.016449 24.959402,22.531361 24.908272,22.293911 
	C24.920605,21.624210 24.984068,21.191957 25.064747,20.432657 
z"/>
<path fill="#3F3F3F" opacity="1.000000" stroke="none" 
	d="
M53.840565,26.029812 
	C54.443020,25.149466 54.935219,24.654926 55.699120,24.054365 
	C56.265186,24.331003 56.559559,24.713663 57.160835,25.304619 
	C57.164539,26.018524 56.861336,26.524136 56.330650,27.225555 
	C55.825665,27.407282 55.548168,27.393202 54.760651,27.364956 
	C54.250629,27.350792 53.850796,27.209032 53.850796,27.209032 
	C53.810631,26.944561 53.770470,26.680092 53.840565,26.029812 
z"/>
<path fill="#C9C9C9" opacity="1.000000" stroke="none" 
	d="
M34.468773,13.891714 
	C34.889656,14.090153 34.962341,14.342993 35.039940,15.296657 
	C34.981335,16.652718 34.917812,17.307957 34.599026,18.075089 
	C34.206554,18.705027 34.069347,19.223066 33.932140,19.741108 
	C33.198448,20.500441 32.464760,21.259773 31.328337,21.576435 
	C30.964302,20.077419 31.002998,19.021076 31.320877,17.796923 
	C31.706049,16.789297 31.812037,15.949482 31.942312,14.813950 
	C31.978146,14.320763 31.989693,14.123291 32.001240,13.925819 
	C32.707684,13.932585 33.414131,13.939350 34.468773,13.891714 
z"/>
<path fill="#D6D6D6" opacity="1.000000" stroke="none" 
	d="
M31.887266,13.698782 
	C31.989693,14.123291 31.978146,14.320763 31.675327,14.768673 
	C31.022346,15.023844 30.660639,15.028576 30.298929,15.033308 
	C30.298929,15.033307 30.133661,14.999043 30.049274,14.998167 
	C30.097200,14.412900 30.229513,13.828508 30.634884,13.111407 
	C31.196390,13.143046 31.484842,13.307395 31.887266,13.698782 
z"/>
<path fill="#7F7F7F" opacity="1.000000" stroke="none" 
	d="
M61.075012,32.941788 
	C62.155659,33.268215 63.236301,33.594643 64.727997,34.260269 
	C65.149338,34.823326 65.159637,35.047176 65.169930,35.271023 
	C63.049187,35.485031 60.928448,35.699036 58.457253,35.918964 
	C58.359154,35.455776 58.611511,34.986664 58.921791,34.251961 
	C58.979713,33.986370 59.211128,33.611309 59.590939,33.352722 
	C60.338837,33.043354 60.706924,32.992569 61.075012,32.941788 
z"/>
<path fill="#959595" opacity="1.000000" stroke="none" 
	d="
M65.520401,35.230766 
	C65.159637,35.047176 65.149338,34.823326 65.078552,34.268787 
	C65.583809,33.816689 66.149559,33.695278 67.089104,33.797291 
	C66.932228,34.410645 66.401550,34.800579 65.520401,35.230766 
z"/>
<path fill="#B9B9B9" opacity="1.000000" stroke="none" 
	d="
M31.689955,46.677383 
	C31.135313,46.336205 30.963659,45.982506 30.601065,45.398117 
	C30.410124,45.167419 30.798538,45.086960 31.128691,45.011578 
	C31.458843,44.936195 31.751652,44.970329 32.149094,44.999817 
	C32.811199,45.006004 33.075863,44.982704 33.567619,44.937164 
	C34.099365,44.911823 34.402996,44.928059 35.048294,45.000519 
	C35.619438,45.012680 35.847889,44.987946 36.055954,44.980091 
	C36.035568,44.996975 36.017395,44.946636 36.017395,44.946632 
	C34.702576,45.519379 33.387760,46.092121 31.689955,46.677383 
z"/>
<path fill="#F1F1F1" opacity="1.000000" stroke="none" 
	d="
M35.373184,42.998764 
	C35.636635,42.996841 35.900085,42.994919 36.635040,43.288078 
	C37.385181,43.754635 37.663826,43.926109 38.009644,44.323997 
	C38.076817,44.550411 38.087509,45.022625 38.087509,45.022625 
	C38.087509,45.022625 37.933617,45.199802 37.980942,45.307846 
	C37.563919,45.386131 37.099575,45.356365 36.326313,45.136620 
	C36.017395,44.946636 36.035568,44.996975 35.985950,44.636826 
	C35.748619,43.850700 35.560902,43.424732 35.373184,42.998764 
z"/>
<path fill="#B1B1B1" opacity="1.000000" stroke="none" 
	d="
M43.087189,44.861179 
	C42.911110,44.895103 42.735031,44.929031 42.291309,44.989120 
	C42.023666,45.015282 41.673466,44.969913 41.388832,44.733437 
	C41.044876,44.325031 40.985558,44.153103 40.926247,43.981171 
	C41.443604,43.102345 41.960960,42.223518 42.764465,41.524628 
	C43.062805,42.756767 43.074997,43.808975 43.087189,44.861179 
z"/>
<path fill="#7F7F7F" opacity="1.000000" stroke="none" 
	d="
M38.249481,45.029697 
	C38.087509,45.022625 38.076817,44.550411 38.023201,44.064201 
	C37.984570,43.233082 37.999550,42.888165 38.350964,42.439125 
	C38.808407,41.884281 38.929413,41.433567 39.050423,40.982849 
	C39.050423,40.982849 38.978092,40.991383 39.240940,40.968925 
	C39.678806,40.983040 39.853828,41.019615 40.028854,41.056190 
	C40.052509,41.804070 40.076164,42.551945 39.720123,43.763138 
	C39.137695,44.512390 38.934952,44.798336 38.732212,45.084278 
	C38.732212,45.084278 38.411453,45.036770 38.249481,45.029697 
z"/>
<path fill="#636363" opacity="1.000000" stroke="none" 
	d="
M39.162292,45.163300 
	C38.934952,44.798336 39.137695,44.512390 39.575462,44.111507 
	C39.996635,44.006577 40.182785,44.016582 40.647587,44.003876 
	C40.985558,44.153103 41.044876,44.325031 41.212852,44.747749 
	C40.745129,45.079796 40.168751,45.161057 39.162292,45.163300 
z"/>
<path fill="#F1F1F1" opacity="1.000000" stroke="none" 
	d="
M61.989746,25.989214 
	C61.989746,25.989214 62.030537,25.550539 62.008354,25.331417 
	C62.437771,25.010763 62.889362,24.909231 63.684826,25.161591 
	C64.012070,25.703859 63.995441,25.892235 63.750450,26.198017 
	C63.207954,26.444443 62.893818,26.573460 62.432266,26.524105 
	C62.284851,26.345732 61.989746,25.989214 61.989746,25.989214 
z"/>
<path fill="#B1B1B1" opacity="1.000000" stroke="none" 
	d="
M63.978813,26.080608 
	C63.995441,25.892235 64.012070,25.703859 64.026291,25.231831 
	C64.023880,24.948179 64.462852,24.727688 64.694153,24.810308 
	C64.925461,24.892929 65.243500,25.131859 64.864662,25.585960 
	C64.277374,26.211533 64.068916,26.383007 63.818192,26.418064 
	C63.775928,26.281651 63.978813,26.080608 63.978813,26.080608 
z"/>
<path fill="#F1F1F1" opacity="1.000000" stroke="none" 
	d="
M27.741533,40.765373 
	C27.936131,41.146946 27.859852,41.754612 27.524796,42.752411 
	C27.266016,43.142548 27.250246,43.166473 27.262653,43.164780 
	C26.902943,43.170296 26.530828,43.177502 26.158712,43.184711 
	C26.596027,42.453629 27.033342,41.722549 27.741533,40.765373 
z"/>
<path fill="#A1A1A1" opacity="1.000000" stroke="none" 
	d="
M36.877308,15.609029 
	C37.163116,15.469849 37.460938,15.364763 37.996246,15.260616 
	C37.454594,17.452656 36.687466,19.677851 35.676163,22.233383 
	C35.010639,22.252811 34.589298,21.941900 34.392105,21.210342 
	C35.015476,19.840549 35.414696,18.891403 36.022423,17.686993 
	C36.446388,16.824160 36.661846,16.216595 36.877308,15.609029 
z"/>
<path fill="#717171" opacity="1.000000" stroke="none" 
	d="
M31.041695,17.964733 
	C31.002998,19.021076 30.964302,20.077419 31.003723,21.524601 
	C30.621290,21.753820 30.160740,21.592201 29.462830,21.377651 
	C29.131720,20.545172 29.037973,19.765627 29.339945,18.520119 
	C30.018826,18.017916 30.301987,17.981676 30.701883,17.888771 
	C30.818619,17.832108 31.041695,17.964733 31.041695,17.964733 
z"/>
<path fill="#3F3F3F" opacity="1.000000" stroke="none" 
	d="
M35.813919,17.942259 
	C35.414696,18.891403 35.015476,19.840549 34.341133,20.939823 
	C34.028732,20.866705 33.991447,20.643461 33.943153,20.080662 
	C34.069347,19.223066 34.206554,18.705027 34.838772,18.061768 
	C35.333782,17.936552 35.813919,17.942259 35.813919,17.942259 
z"/>
<path fill="#EBEBEB" opacity="1.000000" stroke="none" 
	d="
M34.705593,44.963623 
	C34.402996,44.928059 34.099365,44.911823 33.424644,44.581268 
	C32.975857,43.488102 32.897133,42.728577 32.818405,41.969055 
	C33.456280,42.276756 34.094154,42.584454 34.933937,43.261963 
	C34.992424,44.075726 34.849007,44.519676 34.705593,44.963623 
z"/>
<path fill="#EBEBEB" opacity="1.000000" stroke="none" 
	d="
M31.751652,44.970329 
	C31.751652,44.970329 31.458843,44.936195 31.311996,44.935856 
	C31.331268,43.875107 31.497387,42.814701 31.866070,42.260773 
	C31.962973,43.501614 31.857313,44.235973 31.751652,44.970329 
z"/>
<path fill="#959595" opacity="1.000000" stroke="none" 
	d="
M32.149094,44.999817 
	C31.857313,44.235973 31.962973,43.501614 32.101929,42.395126 
	C32.135220,42.022995 32.478325,42.004185 32.648365,41.986618 
	C32.897133,42.728577 32.975857,43.488102 33.197556,44.603516 
	C33.075863,44.982704 32.811199,45.006004 32.149094,44.999817 
z"/>
<path fill="#EBEBEB" opacity="1.000000" stroke="none" 
	d="
M40.221832,40.849766 
	C39.853828,41.019615 39.678806,40.983040 39.241959,41.005325 
	C39.401970,40.409100 39.823803,39.754013 40.572556,39.088966 
	C40.737919,39.600452 40.576363,40.121899 40.221832,40.849766 
z"/>
<path fill="#959595" opacity="1.000000" stroke="none" 
	d="
M38.014530,42.543251 
	C37.999550,42.888165 37.984570,43.233082 37.956032,43.837788 
	C37.663826,43.926109 37.385181,43.754635 37.025795,43.347103 
	C36.975269,42.880341 37.005489,42.649632 37.317722,42.268082 
	C37.738007,42.259251 37.876270,42.401253 38.014530,42.543251 
z"/>
<path fill="#F7F7F7" opacity="1.000000" stroke="none" 
	d="
M38.350964,42.439125 
	C37.876270,42.401253 37.738007,42.259251 37.374096,41.923645 
	C37.601326,41.496555 38.054199,41.263065 38.778748,41.006210 
	C38.929413,41.433567 38.808407,41.884281 38.350964,42.439125 
z"/>
<path fill="#959595" opacity="1.000000" stroke="none" 
	d="
M35.048294,45.000519 
	C34.849007,44.519676 34.992424,44.075726 35.293648,43.317978 
	C35.451462,43.004177 35.412640,43.005878 35.392914,43.002319 
	C35.560902,43.424732 35.748619,43.850700 36.006340,44.619942 
	C35.847889,44.987946 35.619438,45.012680 35.048294,45.000519 
z"/>
<path fill="#E1E1E1" opacity="1.000000" stroke="none" 
	d="
M28.950623,42.939331 
	C29.039324,42.605362 29.251707,42.397030 29.464090,42.188698 
	C29.526184,42.452168 29.588276,42.715633 29.488482,43.145195 
	C29.326595,43.311291 29.074305,43.064968 28.950623,42.939331 
z"/>
<path fill="#A1A1A1" opacity="1.000000" stroke="none" 
	d="
M53.828316,27.416740 
	C53.850796,27.209032 54.250629,27.350792 54.374886,27.522739 
	C54.499142,27.694687 54.188377,27.926575 54.090866,27.962215 
	C53.993355,27.997854 53.805840,27.624449 53.828316,27.416740 
z"/>
<path fill="#F1F1F1" opacity="1.000000" stroke="none" 
	d="
M60.906509,26.901390 
	C60.932579,26.494284 61.209721,26.297791 61.738304,26.045256 
	C61.989746,25.989214 62.284851,26.345732 62.276825,26.658815 
	C62.065075,27.155567 61.863220,27.341267 61.663235,27.528997 
	C61.494686,27.390001 61.326134,27.251005 60.906509,26.901390 
z"/>
<path fill="#F7F7F7" opacity="1.000000" stroke="none" 
	d="
M43.389072,44.924778 
	C43.074997,43.808975 43.062805,42.756767 42.988968,41.314098 
	C42.927322,40.923634 42.982117,40.483246 43.043617,40.270050 
	C43.585529,40.595695 44.065945,41.134541 44.754070,41.857445 
	C44.975864,42.748108 44.989948,43.454708 44.960220,44.512230 
	C44.507931,44.904892 44.099442,44.946632 43.389072,44.924778 
z"/>
<path fill="#B1B1B1" opacity="1.000000" stroke="none" 
	d="
M61.219170,32.667976 
	C60.706924,32.992569 60.338837,33.043354 59.699585,33.161015 
	C59.694855,32.238918 59.961288,31.249943 60.706100,30.307369 
	C61.975224,30.231432 62.765968,30.109093 63.556717,29.986752 
	C64.223938,30.009342 64.891167,30.031931 65.876953,30.156284 
	C65.938232,30.622097 65.680954,30.986149 65.272156,31.514915 
	C63.868206,31.917810 62.615765,32.155987 61.219170,32.667976 
z"/>
<path fill="#636363" opacity="1.000000" stroke="none" 
	d="
M63.435417,29.693573 
	C62.765968,30.109093 61.975224,30.231432 60.980156,30.121693 
	C60.992809,29.298227 61.209785,28.706842 61.544998,27.822227 
	C61.863220,27.341267 62.065075,27.155567 62.424240,26.837189 
	C62.893818,26.573460 63.207954,26.444443 63.750450,26.198017 
	C63.978813,26.080608 63.775928,26.281651 63.842270,26.539175 
	C63.908607,26.796700 64.015999,27.026630 64.015999,27.026630 
	C63.782040,27.817884 63.548077,28.609138 63.435417,29.693573 
z"/>
<path fill="#292929" opacity="1.000000" stroke="none" 
	d="
M36.022423,17.686993 
	C35.813919,17.942259 35.333782,17.936552 35.094036,17.949873 
	C34.917812,17.307957 34.981335,16.652718 35.134247,15.679840 
	C35.609203,15.227305 35.994766,15.092411 36.688225,14.961791 
	C36.996120,14.966065 36.898090,15.281511 36.887699,15.445271 
	C36.661846,16.216595 36.446388,16.824160 36.022423,17.686993 
z"/>
<path fill="#7F7F7F" opacity="1.000000" stroke="none" 
	d="
M64.365547,26.928192 
	C64.015999,27.026630 63.908607,26.796700 63.884529,26.675591 
	C64.068916,26.383007 64.277374,26.211533 64.785370,25.768364 
	C64.961639,25.941031 64.838364,26.385393 64.365547,26.928192 
z"/>
<path fill="#FBFBFB" opacity="1.000000" stroke="none" 
	d="
M31.320877,17.796923 
	C31.041695,17.964733 30.818619,17.832108 30.612183,17.592180 
	C30.317720,17.165461 30.229692,16.978666 30.141665,16.791874 
	C30.190401,16.402748 30.239140,16.013622 30.293404,15.328901 
	C30.660639,15.028576 31.022346,15.023844 31.651039,15.064389 
	C31.812037,15.949482 31.706049,16.789297 31.320877,17.796923 
z"/>
<path fill="#3F3F3F" opacity="1.000000" stroke="none" 
	d="
M29.887970,16.720291 
	C30.229692,16.978666 30.317720,17.165461 30.495449,17.648846 
	C30.301987,17.981676 30.018826,18.017916 29.313643,18.128819 
	C28.891621,18.203482 28.433378,18.038557 28.195961,17.984373 
	C28.036299,17.669271 28.114058,17.408352 28.409615,16.794432 
	C28.963034,16.510525 29.298655,16.579615 29.887970,16.720291 
z"/>
</svg>